STARTFONT 2.1
COMMENT Exported by Fony v1.4.7
FONT Bahnschrift SemiBold SemiConden 0..9
SIZE 77 96 96
FONTBOUNDINGBOX 51 76 0 -13
STARTPROPERTIES 6
COPYRIGHT ""
RESOLUTION_X 96
RESOLUTION_Y 96
FONT_ASCENT 64
FONT_DESCENT 13
DEFAULT_CHAR 0
ENDPROPERTIES
CHARS 256
STARTCHAR 000
ENCODING 0
SWIDTH 3672 0
DWIDTH 51 0
BBX 0 0 0 0
BITMAP
ENDCHAR
STARTCHAR 001
ENCODING 1
SWIDTH 3672 0
DWIDTH 51 0
BBX 0 0 0 0
BITMAP
ENDCHAR
STARTCHAR 002
ENCODING 2
SWIDTH 3672 0
DWIDTH 51 0
BBX 0 0 0 0
BITMAP
ENDCHAR
STARTCHAR 003
ENCODING 3
SWIDTH 3672 0
DWIDTH 51 0
BBX 0 0 0 0
BITMAP
ENDCHAR
STARTCHAR 004
ENCODING 4
SWIDTH 3672 0
DWIDTH 51 0
BBX 0 0 0 0
BITMAP
ENDCHAR
STARTCHAR 005
ENCODING 5
SWIDTH 3672 0
DWIDTH 51 0
BBX 0 0 0 0
BITMAP
ENDCHAR
STARTCHAR 006
ENCODING 6
SWIDTH 3672 0
DWIDTH 51 0
BBX 0 0 0 0
BITMAP
ENDCHAR
STARTCHAR 007
ENCODING 7
SWIDTH 3672 0
DWIDTH 51 0
BBX 0 0 0 0
BITMAP
ENDCHAR
STARTCHAR 008
ENCODING 8
SWIDTH 3672 0
DWIDTH 51 0
BBX 0 0 0 0
BITMAP
ENDCHAR
STARTCHAR 009
ENCODING 9
SWIDTH 3672 0
DWIDTH 51 0
BBX 0 0 0 0
BITMAP
ENDCHAR
STARTCHAR 010
ENCODING 10
SWIDTH 3672 0
DWIDTH 51 0
BBX 0 0 0 0
BITMAP
ENDCHAR
STARTCHAR 011
ENCODING 11
SWIDTH 3672 0
DWIDTH 51 0
BBX 0 0 0 0
BITMAP
ENDCHAR
STARTCHAR 012
ENCODING 12
SWIDTH 3672 0
DWIDTH 51 0
BBX 0 0 0 0
BITMAP
ENDCHAR
STARTCHAR 013
ENCODING 13
SWIDTH 3672 0
DWIDTH 51 0
BBX 0 0 0 0
BITMAP
ENDCHAR
STARTCHAR 014
ENCODING 14
SWIDTH 3672 0
DWIDTH 51 0
BBX 0 0 0 0
BITMAP
ENDCHAR
STARTCHAR 015
ENCODING 15
SWIDTH 3672 0
DWIDTH 51 0
BBX 0 0 0 0
BITMAP
ENDCHAR
STARTCHAR 016
ENCODING 16
SWIDTH 3672 0
DWIDTH 51 0
BBX 0 0 0 0
BITMAP
ENDCHAR
STARTCHAR 017
ENCODING 17
SWIDTH 3672 0
DWIDTH 51 0
BBX 0 0 0 0
BITMAP
ENDCHAR
STARTCHAR 018
ENCODING 18
SWIDTH 3672 0
DWIDTH 51 0
BBX 0 0 0 0
BITMAP
ENDCHAR
STARTCHAR 019
ENCODING 19
SWIDTH 3672 0
DWIDTH 51 0
BBX 0 0 0 0
BITMAP
ENDCHAR
STARTCHAR 020
ENCODING 20
SWIDTH 3672 0
DWIDTH 51 0
BBX 0 0 0 0
BITMAP
ENDCHAR
STARTCHAR 021
ENCODING 21
SWIDTH 3672 0
DWIDTH 51 0
BBX 0 0 0 0
BITMAP
ENDCHAR
STARTCHAR 022
ENCODING 22
SWIDTH 3672 0
DWIDTH 51 0
BBX 0 0 0 0
BITMAP
ENDCHAR
STARTCHAR 023
ENCODING 23
SWIDTH 3672 0
DWIDTH 51 0
BBX 0 0 0 0
BITMAP
ENDCHAR
STARTCHAR 024
ENCODING 24
SWIDTH 3672 0
DWIDTH 51 0
BBX 0 0 0 0
BITMAP
ENDCHAR
STARTCHAR 025
ENCODING 25
SWIDTH 3672 0
DWIDTH 51 0
BBX 0 0 0 0
BITMAP
ENDCHAR
STARTCHAR 026
ENCODING 26
SWIDTH 3672 0
DWIDTH 51 0
BBX 0 0 0 0
BITMAP
ENDCHAR
STARTCHAR 027
ENCODING 27
SWIDTH 3672 0
DWIDTH 51 0
BBX 0 0 0 0
BITMAP
ENDCHAR
STARTCHAR 028
ENCODING 28
SWIDTH 3672 0
DWIDTH 51 0
BBX 0 0 0 0
BITMAP
ENDCHAR
STARTCHAR 029
ENCODING 29
SWIDTH 3672 0
DWIDTH 51 0
BBX 0 0 0 0
BITMAP
ENDCHAR
STARTCHAR 030
ENCODING 30
SWIDTH 3672 0
DWIDTH 51 0
BBX 0 0 0 0
BITMAP
ENDCHAR
STARTCHAR 031
ENCODING 31
SWIDTH 3672 0
DWIDTH 51 0
BBX 0 0 0 0
BITMAP
ENDCHAR
STARTCHAR 032
ENCODING 32
SWIDTH 3672 0
DWIDTH 51 0
BBX 0 0 0 0
BITMAP
ENDCHAR
STARTCHAR 033
ENCODING 33
SWIDTH 3672 0
DWIDTH 51 0
BBX 0 0 0 0
BITMAP
ENDCHAR
STARTCHAR 034
ENCODING 34
SWIDTH 3672 0
DWIDTH 51 0
BBX 0 0 0 0
BITMAP
ENDCHAR
STARTCHAR 035
ENCODING 35
SWIDTH 3672 0
DWIDTH 51 0
BBX 0 0 0 0
BITMAP
ENDCHAR
STARTCHAR 036
ENCODING 36
SWIDTH 3672 0
DWIDTH 51 0
BBX 0 0 0 0
BITMAP
ENDCHAR
STARTCHAR 037
ENCODING 37
SWIDTH 3672 0
DWIDTH 51 0
BBX 0 0 0 0
BITMAP
ENDCHAR
STARTCHAR 038
ENCODING 38
SWIDTH 3672 0
DWIDTH 51 0
BBX 0 0 0 0
BITMAP
ENDCHAR
STARTCHAR 039
ENCODING 39
SWIDTH 3672 0
DWIDTH 51 0
BBX 0 0 0 0
BITMAP
ENDCHAR
STARTCHAR 040
ENCODING 40
SWIDTH 3672 0
DWIDTH 51 0
BBX 0 0 0 0
BITMAP
ENDCHAR
STARTCHAR 041
ENCODING 41
SWIDTH 3672 0
DWIDTH 51 0
BBX 0 0 0 0
BITMAP
ENDCHAR
STARTCHAR 042
ENCODING 42
SWIDTH 3672 0
DWIDTH 51 0
BBX 0 0 0 0
BITMAP
ENDCHAR
STARTCHAR 043
ENCODING 43
SWIDTH 3672 0
DWIDTH 51 0
BBX 0 0 0 0
BITMAP
ENDCHAR
STARTCHAR 044
ENCODING 44
SWIDTH 3672 0
DWIDTH 51 0
BBX 0 0 0 0
BITMAP
ENDCHAR
STARTCHAR 045
ENCODING 45
SWIDTH 3672 0
DWIDTH 51 0
BBX 0 0 0 0
BITMAP
ENDCHAR
STARTCHAR 046
ENCODING 46
SWIDTH 3672 0
DWIDTH 51 0
BBX 7 7 3 0
BITMAP
FE
FE
FE
FE
FE
FE
FE
ENDCHAR
STARTCHAR 047
ENCODING 47
SWIDTH 3672 0
DWIDTH 51 0
BBX 0 0 0 0
BITMAP
ENDCHAR
STARTCHAR 048
ENCODING 48
SWIDTH 3672 0
DWIDTH 51 0
BBX 23 46 4 0
BITMAP
01FF00
07FFC0
1FFFF0
3FFFF8
3FFFF8
7FFFFC
7FFFFC
FF83FE
FF01FE
FE00FE
FE00FE
FE00FE
FE00FE
FE00FE
FE00FE
FE00FE
FE00FE
FE00FE
FE00FE
FE00FE
FE00FE
FE00FE
FE00FE
FE00FE
FE00FE
FE00FE
FE00FE
FE00FE
FE00FE
FE00FE
FE00FE
FE00FE
FE00FE
FE00FE
FE00FE
FE00FE
FE00FE
FF01FE
FF01FE
FFEFFE
7FFFFC
7FFFFC
3FFFF8
1FFFF0
0FFFE0
03FF80
ENDCHAR
STARTCHAR 049
ENCODING 49
SWIDTH 3672 0
DWIDTH 51 0
BBX 13 45 2 0
BITMAP
0FF8
1FF8
7FF8
FFF8
FFF8
FFF8
FFF8
FFF8
F3F8
C3F8
03F8
03F8
03F8
03F8
03F8
03F8
03F8
03F8
03F8
03F8
03F8
03F8
03F8
03F8
03F8
03F8
03F8
03F8
03F8
03F8
03F8
03F8
03F8
03F8
03F8
03F8
03F8
03F8
03F8
03F8
03F8
03F8
03F8
03F8
03F8
ENDCHAR
STARTCHAR 050
ENCODING 50
SWIDTH 3672 0
DWIDTH 51 0
BBX 24 46 3 0
BITMAP
00FF00
03FFC0
0FFFF0
1FFFF8
3FFFFC
3FFFFC
7FFFFE
7FC3FE
FF01FE
FF00FE
FE00FE
FE00FF
FE00FE
0000FE
0000FE
0001FE
0001FE
0001FC
0003FC
0003FC
0007F8
000FF8
000FF0
001FE0
003FE0
003FC0
007FC0
00FF80
00FF00
01FF00
03FE00
03FC00
07FC00
0FF800
0FF000
1FF000
3FE000
3FC000
7FC000
FFFFFF
FFFFFF
FFFFFF
FFFFFF
FFFFFF
FFFFFF
FFFFFF
ENDCHAR
STARTCHAR 051
ENCODING 51
SWIDTH 3672 0
DWIDTH 51 0
BBX 24 46 2 0
BITMAP
007F00
03FFE0
07FFF0
0FFFF8
1FFFFC
3FFFFC
3FFFFE
3FC3FE
7F80FE
7F80FE
7F00FE
7F00FF
7F00FF
0000FF
0000FE
0000FE
0000FE
0001FE
0003FC
007FFC
007FF8
007FE0
007FE0
007FF8
007FFC
007FFE
0001FE
0000FF
00007F
00007F
00007F
00007F
00007F
00007F
FE007F
FF007F
FF007F
FF00FF
7F81FF
7FFFFF
7FFFFE
3FFFFE
1FFFFC
1FFFF8
07FFF0
01FFC0
ENDCHAR
STARTCHAR 052
ENCODING 52
SWIDTH 3672 0
DWIDTH 51 0
BBX 27 45 3 0
BITMAP
000FE000
001FE000
001FE000
001FC000
003FC000
003FC000
003F8000
007F8000
007F8000
00FF0000
00FF0000
00FE0000
01FE0000
01FE0000
01FC0000
03FC0000
03FC0000
07F80000
07F80000
07F07F00
0FF07F00
0FF07F00
1FE07F00
1FE07F00
1FE07F00
3FC07F00
3FC07F00
3F807F00
7F807F00
7F807F00
FF007F00
FFFFFFE0
FFFFFFE0
FFFFFFE0
FFFFFFE0
FFFFFFE0
FFFFFFE0
FFFFFFE0
00007F00
00007F00
00007F00
00007F00
00007F00
00007F00
00007F00
ENDCHAR
STARTCHAR 053
ENCODING 53
SWIDTH 3672 0
DWIDTH 51 0
BBX 23 45 4 0
BITMAP
7FFFFC
7FFFFC
7FFFFC
7FFFFC
7FFFFC
7FFFFC
7F0000
7F0000
7F0000
7F0000
7F0000
7F0000
7F0000
7F0000
7F1F00
7F7FC0
7FFFF0
7FFFF0
7FFFF8
7FFFFC
7FFFFC
7FC3FC
7F01FE
7F01FE
0000FE
0000FE
0000FE
0000FE
0000FE
0000FE
0000FE
0000FE
0000FE
FE00FE
FE00FE
FE01FE
FF01FE
FF03FC
7FEFFC
7FFFFC
7FFFF8
3FFFF0
1FFFF0
0FFFC0
03FF80
ENDCHAR
STARTCHAR 054
ENCODING 54
SWIDTH 3672 0
DWIDTH 51 0
BBX 23 45 3 0
BITMAP
001FE0
003FC0
003FC0
007F80
007F80
00FF00
00FF00
00FE00
01FE00
01FC00
03FC00
03FC00
07F800
07F800
0FF000
0FF000
0FE000
1FE000
1FFF00
3FFFE0
3FFFF0
7FFFF8
7FFFF8
7FFFFC
FFFFFC
FF83FE
FF01FE
FE01FE
FE00FE
FE00FE
FE00FE
FE00FE
FE00FE
FE00FE
FE00FE
FE00FE
FF01FE
FF03FE
7FCFFC
7FFFFC
7FFFF8
3FFFF8
1FFFF0
0FFFC0
03FF80
ENDCHAR
STARTCHAR 055
ENCODING 55
SWIDTH 3672 0
DWIDTH 51 0
BBX 23 45 2 0
BITMAP
FFFFFE
FFFFFE
FFFFFE
FFFFFE
FFFFFE
FFFFFE
FF00FE
FF01FE
FF01FC
FF01FC
FF01FC
FF03FC
0003F8
0003F8
0003F8
0007F8
0007F0
0007F0
0007F0
000FF0
000FE0
000FE0
000FE0
001FE0
001FC0
001FC0
001FC0
003FC0
003F80
003F80
007F80
007F80
007F00
007F00
00FF00
00FF00
00FE00
00FE00
01FE00
01FE00
01FC00
01FC00
03FC00
03FC00
03F800
ENDCHAR
STARTCHAR 056
ENCODING 56
SWIDTH 3672 0
DWIDTH 51 0
BBX 25 46 3 0
BITMAP
007F0000
03FFE000
07FFF000
0FFFFC00
1FFFFC00
3FFFFE00
3FFFFE00
7FC1FF00
7F80FF00
7F807F00
7F007F00
7F007F00
7F007F00
7F007F00
7F007F00
7F007F00
7F807F00
3F80FE00
3FC1FE00
1FFFFC00
0FFFF800
07FFF000
07FFF000
0FFFF800
1FFFFC00
3FFFFE00
3FC1FF00
7F807F00
7F007F00
FF003F80
FE003F80
FE003F80
FE003F80
FE003F80
FE003F80
FF003F80
FF007F80
7F007F80
7F80FF00
7FF3FF00
7FFFFF00
3FFFFE00
1FFFFC00
0FFFF800
07FFF000
01FFC000
ENDCHAR
STARTCHAR 057
ENCODING 57
SWIDTH 3672 0
DWIDTH 51 0
BBX 23 46 3 0
BITMAP
00FE00
07FFC0
0FFFE0
1FFFF0
3FFFF8
7FFFFC
7FFFFC
FF83FC
FF01FE
FE01FE
FE00FE
FE00FE
FE00FE
FE00FE
FE00FE
FE00FE
FE00FE
FE00FE
FE01FE
FF01FE
FFC7FC
7FFFFC
7FFFFC
3FFFFC
1FFFF8
0FFFF8
07FFF0
000FF0
000FF0
000FE0
001FE0
001FC0
003FC0
003F80
007F80
007F80
007F00
00FF00
00FE00
01FE00
01FC00
03FC00
03FC00
03F800
07F800
07F000
ENDCHAR
STARTCHAR 058
ENCODING 58
SWIDTH 3672 0
DWIDTH 51 0
BBX 0 0 0 0
BITMAP
ENDCHAR
STARTCHAR 059
ENCODING 59
SWIDTH 3672 0
DWIDTH 51 0
BBX 0 0 0 0
BITMAP
ENDCHAR
STARTCHAR 060
ENCODING 60
SWIDTH 3672 0
DWIDTH 51 0
BBX 0 0 0 0
BITMAP
ENDCHAR
STARTCHAR 061
ENCODING 61
SWIDTH 3672 0
DWIDTH 51 0
BBX 0 0 0 0
BITMAP
ENDCHAR
STARTCHAR 062
ENCODING 62
SWIDTH 3672 0
DWIDTH 51 0
BBX 0 0 0 0
BITMAP
ENDCHAR
STARTCHAR 063
ENCODING 63
SWIDTH 3672 0
DWIDTH 51 0
BBX 0 0 0 0
BITMAP
ENDCHAR
STARTCHAR 064
ENCODING 64
SWIDTH 3672 0
DWIDTH 51 0
BBX 0 0 0 0
BITMAP
ENDCHAR
STARTCHAR 065
ENCODING 65
SWIDTH 3672 0
DWIDTH 51 0
BBX 0 0 0 0
BITMAP
ENDCHAR
STARTCHAR 066
ENCODING 66
SWIDTH 3672 0
DWIDTH 51 0
BBX 0 0 0 0
BITMAP
ENDCHAR
STARTCHAR 067
ENCODING 67
SWIDTH 3672 0
DWIDTH 51 0
BBX 0 0 0 0
BITMAP
ENDCHAR
STARTCHAR 068
ENCODING 68
SWIDTH 3672 0
DWIDTH 51 0
BBX 0 0 0 0
BITMAP
ENDCHAR
STARTCHAR 069
ENCODING 69
SWIDTH 3672 0
DWIDTH 51 0
BBX 0 0 0 0
BITMAP
ENDCHAR
STARTCHAR 070
ENCODING 70
SWIDTH 3672 0
DWIDTH 51 0
BBX 0 0 0 0
BITMAP
ENDCHAR
STARTCHAR 071
ENCODING 71
SWIDTH 3672 0
DWIDTH 51 0
BBX 0 0 0 0
BITMAP
ENDCHAR
STARTCHAR 072
ENCODING 72
SWIDTH 3672 0
DWIDTH 51 0
BBX 0 0 0 0
BITMAP
ENDCHAR
STARTCHAR 073
ENCODING 73
SWIDTH 3672 0
DWIDTH 51 0
BBX 0 0 0 0
BITMAP
ENDCHAR
STARTCHAR 074
ENCODING 74
SWIDTH 3672 0
DWIDTH 51 0
BBX 0 0 0 0
BITMAP
ENDCHAR
STARTCHAR 075
ENCODING 75
SWIDTH 3672 0
DWIDTH 51 0
BBX 0 0 0 0
BITMAP
ENDCHAR
STARTCHAR 076
ENCODING 76
SWIDTH 3672 0
DWIDTH 51 0
BBX 0 0 0 0
BITMAP
ENDCHAR
STARTCHAR 077
ENCODING 77
SWIDTH 3672 0
DWIDTH 51 0
BBX 0 0 0 0
BITMAP
ENDCHAR
STARTCHAR 078
ENCODING 78
SWIDTH 3672 0
DWIDTH 51 0
BBX 0 0 0 0
BITMAP
ENDCHAR
STARTCHAR 079
ENCODING 79
SWIDTH 3672 0
DWIDTH 51 0
BBX 0 0 0 0
BITMAP
ENDCHAR
STARTCHAR 080
ENCODING 80
SWIDTH 3672 0
DWIDTH 51 0
BBX 0 0 0 0
BITMAP
ENDCHAR
STARTCHAR 081
ENCODING 81
SWIDTH 3672 0
DWIDTH 51 0
BBX 0 0 0 0
BITMAP
ENDCHAR
STARTCHAR 082
ENCODING 82
SWIDTH 3672 0
DWIDTH 51 0
BBX 0 0 0 0
BITMAP
ENDCHAR
STARTCHAR 083
ENCODING 83
SWIDTH 3672 0
DWIDTH 51 0
BBX 0 0 0 0
BITMAP
ENDCHAR
STARTCHAR 084
ENCODING 84
SWIDTH 3672 0
DWIDTH 51 0
BBX 0 0 0 0
BITMAP
ENDCHAR
STARTCHAR 085
ENCODING 85
SWIDTH 3672 0
DWIDTH 51 0
BBX 0 0 0 0
BITMAP
ENDCHAR
STARTCHAR 086
ENCODING 86
SWIDTH 3672 0
DWIDTH 51 0
BBX 0 0 0 0
BITMAP
ENDCHAR
STARTCHAR 087
ENCODING 87
SWIDTH 3672 0
DWIDTH 51 0
BBX 0 0 0 0
BITMAP
ENDCHAR
STARTCHAR 088
ENCODING 88
SWIDTH 3672 0
DWIDTH 51 0
BBX 0 0 0 0
BITMAP
ENDCHAR
STARTCHAR 089
ENCODING 89
SWIDTH 3672 0
DWIDTH 51 0
BBX 0 0 0 0
BITMAP
ENDCHAR
STARTCHAR 090
ENCODING 90
SWIDTH 3672 0
DWIDTH 51 0
BBX 0 0 0 0
BITMAP
ENDCHAR
STARTCHAR 091
ENCODING 91
SWIDTH 3672 0
DWIDTH 51 0
BBX 0 0 0 0
BITMAP
ENDCHAR
STARTCHAR 092
ENCODING 92
SWIDTH 3672 0
DWIDTH 51 0
BBX 0 0 0 0
BITMAP
ENDCHAR
STARTCHAR 093
ENCODING 93
SWIDTH 3672 0
DWIDTH 51 0
BBX 0 0 0 0
BITMAP
ENDCHAR
STARTCHAR 094
ENCODING 94
SWIDTH 3672 0
DWIDTH 51 0
BBX 0 0 0 0
BITMAP
ENDCHAR
STARTCHAR 095
ENCODING 95
SWIDTH 3672 0
DWIDTH 51 0
BBX 0 0 0 0
BITMAP
ENDCHAR
STARTCHAR 096
ENCODING 96
SWIDTH 3672 0
DWIDTH 51 0
BBX 0 0 0 0
BITMAP
ENDCHAR
STARTCHAR 097
ENCODING 97
SWIDTH 3672 0
DWIDTH 51 0
BBX 0 0 0 0
BITMAP
ENDCHAR
STARTCHAR 098
ENCODING 98
SWIDTH 3672 0
DWIDTH 51 0
BBX 0 0 0 0
BITMAP
ENDCHAR
STARTCHAR 099
ENCODING 99
SWIDTH 3672 0
DWIDTH 51 0
BBX 0 0 0 0
BITMAP
ENDCHAR
STARTCHAR 100
ENCODING 100
SWIDTH 3672 0
DWIDTH 51 0
BBX 0 0 0 0
BITMAP
ENDCHAR
STARTCHAR 101
ENCODING 101
SWIDTH 3672 0
DWIDTH 51 0
BBX 0 0 0 0
BITMAP
ENDCHAR
STARTCHAR 102
ENCODING 102
SWIDTH 3672 0
DWIDTH 51 0
BBX 0 0 0 0
BITMAP
ENDCHAR
STARTCHAR 103
ENCODING 103
SWIDTH 3672 0
DWIDTH 51 0
BBX 0 0 0 0
BITMAP
ENDCHAR
STARTCHAR 104
ENCODING 104
SWIDTH 3672 0
DWIDTH 51 0
BBX 0 0 0 0
BITMAP
ENDCHAR
STARTCHAR 105
ENCODING 105
SWIDTH 3672 0
DWIDTH 51 0
BBX 0 0 0 0
BITMAP
ENDCHAR
STARTCHAR 106
ENCODING 106
SWIDTH 3672 0
DWIDTH 51 0
BBX 0 0 0 0
BITMAP
ENDCHAR
STARTCHAR 107
ENCODING 107
SWIDTH 3672 0
DWIDTH 51 0
BBX 0 0 0 0
BITMAP
ENDCHAR
STARTCHAR 108
ENCODING 108
SWIDTH 3672 0
DWIDTH 51 0
BBX 0 0 0 0
BITMAP
ENDCHAR
STARTCHAR 109
ENCODING 109
SWIDTH 3672 0
DWIDTH 51 0
BBX 0 0 0 0
BITMAP
ENDCHAR
STARTCHAR 110
ENCODING 110
SWIDTH 3672 0
DWIDTH 51 0
BBX 0 0 0 0
BITMAP
ENDCHAR
STARTCHAR 111
ENCODING 111
SWIDTH 3672 0
DWIDTH 51 0
BBX 0 0 0 0
BITMAP
ENDCHAR
STARTCHAR 112
ENCODING 112
SWIDTH 3672 0
DWIDTH 51 0
BBX 0 0 0 0
BITMAP
ENDCHAR
STARTCHAR 113
ENCODING 113
SWIDTH 3672 0
DWIDTH 51 0
BBX 0 0 0 0
BITMAP
ENDCHAR
STARTCHAR 114
ENCODING 114
SWIDTH 3672 0
DWIDTH 51 0
BBX 0 0 0 0
BITMAP
ENDCHAR
STARTCHAR 115
ENCODING 115
SWIDTH 3672 0
DWIDTH 51 0
BBX 0 0 0 0
BITMAP
ENDCHAR
STARTCHAR 116
ENCODING 116
SWIDTH 3672 0
DWIDTH 51 0
BBX 0 0 0 0
BITMAP
ENDCHAR
STARTCHAR 117
ENCODING 117
SWIDTH 3672 0
DWIDTH 51 0
BBX 0 0 0 0
BITMAP
ENDCHAR
STARTCHAR 118
ENCODING 118
SWIDTH 3672 0
DWIDTH 51 0
BBX 0 0 0 0
BITMAP
ENDCHAR
STARTCHAR 119
ENCODING 119
SWIDTH 3672 0
DWIDTH 51 0
BBX 0 0 0 0
BITMAP
ENDCHAR
STARTCHAR 120
ENCODING 120
SWIDTH 3672 0
DWIDTH 51 0
BBX 0 0 0 0
BITMAP
ENDCHAR
STARTCHAR 121
ENCODING 121
SWIDTH 3672 0
DWIDTH 51 0
BBX 0 0 0 0
BITMAP
ENDCHAR
STARTCHAR 122
ENCODING 122
SWIDTH 3672 0
DWIDTH 51 0
BBX 0 0 0 0
BITMAP
ENDCHAR
STARTCHAR 123
ENCODING 123
SWIDTH 3672 0
DWIDTH 51 0
BBX 0 0 0 0
BITMAP
ENDCHAR
STARTCHAR 124
ENCODING 124
SWIDTH 3672 0
DWIDTH 51 0
BBX 0 0 0 0
BITMAP
ENDCHAR
STARTCHAR 125
ENCODING 125
SWIDTH 3672 0
DWIDTH 51 0
BBX 0 0 0 0
BITMAP
ENDCHAR
STARTCHAR 126
ENCODING 126
SWIDTH 3672 0
DWIDTH 51 0
BBX 0 0 0 0
BITMAP
ENDCHAR
STARTCHAR 127
ENCODING 127
SWIDTH 3672 0
DWIDTH 51 0
BBX 0 0 0 0
BITMAP
ENDCHAR
STARTCHAR 128
ENCODING 128
SWIDTH 3672 0
DWIDTH 51 0
BBX 0 0 0 0
BITMAP
ENDCHAR
STARTCHAR 129
ENCODING 129
SWIDTH 3672 0
DWIDTH 51 0
BBX 0 0 0 0
BITMAP
ENDCHAR
STARTCHAR 130
ENCODING 130
SWIDTH 3672 0
DWIDTH 51 0
BBX 0 0 0 0
BITMAP
ENDCHAR
STARTCHAR 131
ENCODING 131
SWIDTH 3672 0
DWIDTH 51 0
BBX 0 0 0 0
BITMAP
ENDCHAR
STARTCHAR 132
ENCODING 132
SWIDTH 3672 0
DWIDTH 51 0
BBX 0 0 0 0
BITMAP
ENDCHAR
STARTCHAR 133
ENCODING 133
SWIDTH 3672 0
DWIDTH 51 0
BBX 0 0 0 0
BITMAP
ENDCHAR
STARTCHAR 134
ENCODING 134
SWIDTH 3672 0
DWIDTH 51 0
BBX 0 0 0 0
BITMAP
ENDCHAR
STARTCHAR 135
ENCODING 135
SWIDTH 3672 0
DWIDTH 51 0
BBX 0 0 0 0
BITMAP
ENDCHAR
STARTCHAR 136
ENCODING 136
SWIDTH 3672 0
DWIDTH 51 0
BBX 0 0 0 0
BITMAP
ENDCHAR
STARTCHAR 137
ENCODING 137
SWIDTH 3672 0
DWIDTH 51 0
BBX 0 0 0 0
BITMAP
ENDCHAR
STARTCHAR 138
ENCODING 138
SWIDTH 3672 0
DWIDTH 51 0
BBX 0 0 0 0
BITMAP
ENDCHAR
STARTCHAR 139
ENCODING 139
SWIDTH 3672 0
DWIDTH 51 0
BBX 0 0 0 0
BITMAP
ENDCHAR
STARTCHAR 140
ENCODING 140
SWIDTH 3672 0
DWIDTH 51 0
BBX 0 0 0 0
BITMAP
ENDCHAR
STARTCHAR 141
ENCODING 141
SWIDTH 3672 0
DWIDTH 51 0
BBX 0 0 0 0
BITMAP
ENDCHAR
STARTCHAR 142
ENCODING 142
SWIDTH 3672 0
DWIDTH 51 0
BBX 0 0 0 0
BITMAP
ENDCHAR
STARTCHAR 143
ENCODING 143
SWIDTH 3672 0
DWIDTH 51 0
BBX 0 0 0 0
BITMAP
ENDCHAR
STARTCHAR 144
ENCODING 144
SWIDTH 3672 0
DWIDTH 51 0
BBX 0 0 0 0
BITMAP
ENDCHAR
STARTCHAR 145
ENCODING 145
SWIDTH 3672 0
DWIDTH 51 0
BBX 0 0 0 0
BITMAP
ENDCHAR
STARTCHAR 146
ENCODING 146
SWIDTH 3672 0
DWIDTH 51 0
BBX 0 0 0 0
BITMAP
ENDCHAR
STARTCHAR 147
ENCODING 147
SWIDTH 3672 0
DWIDTH 51 0
BBX 0 0 0 0
BITMAP
ENDCHAR
STARTCHAR 148
ENCODING 148
SWIDTH 3672 0
DWIDTH 51 0
BBX 0 0 0 0
BITMAP
ENDCHAR
STARTCHAR 149
ENCODING 149
SWIDTH 3672 0
DWIDTH 51 0
BBX 0 0 0 0
BITMAP
ENDCHAR
STARTCHAR 150
ENCODING 150
SWIDTH 3672 0
DWIDTH 51 0
BBX 0 0 0 0
BITMAP
ENDCHAR
STARTCHAR 151
ENCODING 151
SWIDTH 3672 0
DWIDTH 51 0
BBX 0 0 0 0
BITMAP
ENDCHAR
STARTCHAR 152
ENCODING 152
SWIDTH 3672 0
DWIDTH 51 0
BBX 0 0 0 0
BITMAP
ENDCHAR
STARTCHAR 153
ENCODING 153
SWIDTH 3672 0
DWIDTH 51 0
BBX 0 0 0 0
BITMAP
ENDCHAR
STARTCHAR 154
ENCODING 154
SWIDTH 3672 0
DWIDTH 51 0
BBX 0 0 0 0
BITMAP
ENDCHAR
STARTCHAR 155
ENCODING 155
SWIDTH 3672 0
DWIDTH 51 0
BBX 0 0 0 0
BITMAP
ENDCHAR
STARTCHAR 156
ENCODING 156
SWIDTH 3672 0
DWIDTH 51 0
BBX 0 0 0 0
BITMAP
ENDCHAR
STARTCHAR 157
ENCODING 157
SWIDTH 3672 0
DWIDTH 51 0
BBX 0 0 0 0
BITMAP
ENDCHAR
STARTCHAR 158
ENCODING 158
SWIDTH 3672 0
DWIDTH 51 0
BBX 0 0 0 0
BITMAP
ENDCHAR
STARTCHAR 159
ENCODING 159
SWIDTH 3672 0
DWIDTH 51 0
BBX 0 0 0 0
BITMAP
ENDCHAR
STARTCHAR 160
ENCODING 160
SWIDTH 3672 0
DWIDTH 51 0
BBX 0 0 0 0
BITMAP
ENDCHAR
STARTCHAR 161
ENCODING 161
SWIDTH 3672 0
DWIDTH 51 0
BBX 7 45 4 -13
BITMAP
FE
FE
FE
FE
FE
FE
FE
00
00
00
00
00
FE
FE
FE
FE
FE
FE
FE
FE
FE
FE
FE
FE
FE
FE
FE
FE
FE
FE
FE
FE
FE
FE
FE
FE
FE
FE
FE
FE
FE
FE
FE
FE
FE
ENDCHAR
STARTCHAR 162
ENCODING 162
SWIDTH 3672 0
DWIDTH 51 0
BBX 23 44 3 -6
BITMAP
00FE00
00FE00
00FE00
00FE00
00FE00
00FF00
03FFC0
0FFFF0
1FFFF8
3FFFF8
3FFFFC
7FFFFC
7FFFFE
7FFFFE
FFFEF8
FEFEC0
FEFE00
FEFE00
FEFE00
FEFE00
FEFE00
FEFE00
FEFE00
FEFE00
FEFE00
FEFE00
FEFE00
FEFE00
FEFEC0
FFFEF8
7FFFFE
7FFFFE
7FFFFC
3FFFFC
3FFFF8
1FFFF0
07FFE0
03FFC0
00FE00
00FE00
00FE00
00FE00
00FE00
00FE00
ENDCHAR
STARTCHAR 163
ENCODING 163
SWIDTH 3672 0
DWIDTH 51 0
BBX 28 46 2 0
BITMAP
000FF000
003FFE00
00FFFF00
01FFFF80
03FFFFC0
07FFFFE0
07FFFFE0
07FC1FF0
0FF00FF0
0FF007F0
0FE007F0
0FE007F0
0FE007F0
0FE007F0
0FE007F0
0FE00000
0FE00000
0FE00000
0FE00000
0FE00000
0FE00000
0FE00000
0FE00000
0FE00000
7FFFF800
7FFFF800
7FFFF800
7FFFF800
7FFFF800
0FE00000
0FE00000
0FE00000
0FE00000
0FE00000
0FE00000
0FE00000
0FE00000
1FC00000
3F800000
FFFFFFF0
FFFFFFF0
FFFFFFF0
FFFFFFF0
FFFFFFF0
FFFFFFF0
FFFFFFF0
ENDCHAR
STARTCHAR 164
ENCODING 164
SWIDTH 3672 0
DWIDTH 51 0
BBX 29 30 2 7
BITMAP
0C000180
1E0003C0
3F3FE7E0
7FFFFFF0
FFFFFFF8
7FFFFFF0
3FFFFFE0
1FFFFFC0
0FF87F80
0FE03FC0
0FE01FC0
0FC01FC0
1FC00FC0
1FC00FC0
1FC00FC0
1FC00FC0
1FC00FC0
1FC00FC0
0FC01FC0
0FE01FC0
0FE03FC0
0FF87F80
1FFFFFC0
3FFFFFE0
7FFFFFF0
FFFFFFF8
7FFFFFF0
3F1FE7E0
0E0003C0
04000180
ENDCHAR
STARTCHAR 165
ENCODING 165
SWIDTH 3672 0
DWIDTH 51 0
BBX 27 45 0 0
BITMAP
FE0007E0
FE000FE0
FF000FE0
7F001FE0
7F001FC0
7F801FC0
3F803FC0
3F803F80
1FC03F80
1FC07F00
1FE07F00
0FE07F00
0FE0FE00
07F0FE00
07F1FC00
03F1FC00
03F9FC00
03FBF800
01FFF800
01FFF000
00FFF000
00FFF000
00FFE000
007FE000
007FC000
003FC000
003FC000
003F8000
003F8000
0FFFFF00
0FFFFF00
0FFFFF00
0FFFFF00
003F8000
003F8000
003F8000
0FFFFF00
0FFFFF00
0FFFFF00
0FFFFF00
003F8000
003F8000
003F8000
003F8000
003F8000
ENDCHAR
STARTCHAR 166
ENCODING 166
SWIDTH 3672 0
DWIDTH 51 0
BBX 7 56 4 -5
BITMAP
FE
FE
FE
FE
FE
FE
FE
FE
FE
FE
FE
FE
FE
FE
FE
FE
FE
FE
FE
FE
FE
FE
FE
00
00
00
00
00
00
00
00
00
00
00
FE
FE
FE
FE
FE
FE
FE
FE
FE
FE
FE
FE
FE
FE
FE
FE
FE
FE
FE
FE
FE
FE
ENDCHAR
STARTCHAR 167
ENCODING 167
SWIDTH 3672 0
DWIDTH 51 0
BBX 28 52 3 -6
BITMAP
003F8000
01FFF000
07FFFC00
0FFFFE00
1FFFFF00
1FFFFF80
3FFFFFC0
3FC07F00
3F801C00
3F800000
3F000000
3F800000
3F800000
3FC00000
3FF00000
1FFF0000
1FFFF000
0FFFFC00
1FFFFF00
3FFFFF80
7FFFFFC0
7FE7FFE0
FF007FE0
FE001FE0
FE000FF0
FC0007F0
FC0007F0
FE0007F0
FE0007F0
FF000FE0
FFE01FE0
7FFE7FE0
7FFFFFC0
3FFFFF80
0FFFFF00
03FFFF00
00FFFF00
0007FF80
0000FF80
00003FC0
00001FC0
00001FC0
00001FC0
0E001FC0
3F003FC0
7FC0FF80
7FFFFF80
3FFFFF80
3FFFFF00
0FFFFE00
07FFF800
01FFE000
ENDCHAR
STARTCHAR 168
ENCODING 168
SWIDTH 3672 0
DWIDTH 51 0
BBX 19 7 1 39
BITMAP
FE0FE0
FE0FE0
FE0FE0
FE0FE0
FE0FE0
FE0FE0
FE0FE0
ENDCHAR
STARTCHAR 169
ENCODING 169
SWIDTH 3672 0
DWIDTH 51 0
BBX 35 38 3 11
BITMAP
000FFE0000
007FFFC000
01FFFFF000
07FFFFFC00
0FFFFFFE00
1FF803FF00
1FE000FF00
3F80003F80
3F00001F80
7E07FC1FC0
7E0FFE0FC0
FC1FFF07C0
FC3FFF87E0
FC3FFF87E0
FC7F1F87E0
FC7E0E07E0
F87E0007E0
F87E0007E0
F87E0007E0
F87E0007E0
F87E0007E0
F87E0807E0
F87E0F07E0
FC7F1F87E0
FC3FFF87E0
FC3FFF87E0
FC1FFF07E0
7E0FFE0FC0
7E03FC0FC0
7F00001FC0
3F80003F80
3FE000FF80
1FF803FF00
0FFFFFFE00
07FFFFFC00
03FFFFF800
00FFFFE000
001FFF0000
ENDCHAR
STARTCHAR 170
ENCODING 170
SWIDTH 3672 0
DWIDTH 51 0
BBX 16 20 2 26
BITMAP
03C0
0FF8
3FFC
3FFE
7FFE
3E7F
043F
003F
03FF
1FFF
3FFF
7FFF
7FFF
FC3F
FC3F
FC3F
7FFF
7FFF
3FFF
1FBF
ENDCHAR
STARTCHAR 171
ENCODING 171
SWIDTH 3672 0
DWIDTH 51 0
BBX 28 22 1 5
BITMAP
01FC0FE0
03FC1FE0
07F83FC0
07F83F80
0FF07F80
1FE0FF00
1FE0FE00
3FC1FE00
7F83FC00
7F83FC00
FF07F800
FF07F800
7F83FC00
3FC1FE00
3FC1FE00
1FE0FF00
0FF07F00
0FF07F80
07F83FC0
03FC1FC0
03FC1FE0
01FE0FF0
ENDCHAR
STARTCHAR 172
ENCODING 172
SWIDTH 3672 0
DWIDTH 51 0
BBX 22 14 3 13
BITMAP
FFFFFC
FFFFFC
FFFFFC
FFFFFC
FFFFFC
FFFFFC
FFFFFC
0001FC
0001FC
0001FC
0001FC
0001FC
0001FC
0001FC
ENDCHAR
STARTCHAR 173
ENCODING 173
SWIDTH 3672 0
DWIDTH 51 0
BBX 19 7 4 13
BITMAP
FFFFE0
FFFFE0
FFFFE0
FFFFE0
FFFFE0
FFFFE0
FFFFE0
ENDCHAR
STARTCHAR 174
ENCODING 174
SWIDTH 3672 0
DWIDTH 51 0
BBX 35 38 3 11
BITMAP
001FFE0000
007FFFC000
01FFFFF000
07FFFFFC00
0FFFFFFE00
1FF803FF00
1FE000FF00
3F80003F80
3F00001F80
7E3FF01FC0
7E3FFE0FC0
FC3FFF07C0
FC3FFF07E0
FC3FFF87E0
FC3F0F87E0
FC3F0F87E0
F83F0F87E0
F83F0F87E0
F83FFF87E0
F83FFF87E0
F83FFF07E0
F83FFE07E0
F83FFE07E0
FC3F3E07E0
FC3F3F07E0
FC3F1F07E0
FC3F1F87E0
7E3F0F8FC0
7E3F0FCFC0
7F00001FC0
3F80003F80
3FE000FF80
1FF803FF00
0FFFFFFE00
07FFFFFC00
03FFFFF800
00FFFFE000
001FFF0000
ENDCHAR
STARTCHAR 175
ENCODING 175
SWIDTH 3672 0
DWIDTH 51 0
BBX 20 7 1 38
BITMAP
FFFFF0
FFFFF0
FFFFF0
FFFFF0
FFFFF0
FFFFF0
FFFFF0
ENDCHAR
STARTCHAR 176
ENCODING 176
SWIDTH 3672 0
DWIDTH 51 0
BBX 17 19 2 27
BITMAP
07E000
1FFC00
3FFE00
7FFE00
FFFF00
FFFF00
FC3F00
FC1F80
FC1F80
F81F80
FC1F80
FC1F80
FC3F00
FFFF00
7FFF00
7FFE00
3FFC00
1FF800
03E000
ENDCHAR
STARTCHAR 177
ENCODING 177
SWIDTH 3672 0
DWIDTH 51 0
BBX 22 26 3 8
BITMAP
01FC00
01FC00
01FC00
01FC00
01FC00
01FC00
01FC00
01FC00
FFFFFC
FFFFFC
FFFFFC
FFFFFC
FFFFFC
FFFFFC
01FC00
01FC00
01FC00
01FC00
01FC00
01FC00
FFFFFC
FFFFFC
FFFFFC
FFFFFC
FFFFFC
FFFFFC
ENDCHAR
STARTCHAR 178
ENCODING 178
SWIDTH 3672 0
DWIDTH 51 0
BBX 14 20 2 26
BITMAP
0780
1FF0
3FF8
7FFC
7FFC
FCFC
FCFC
00FC
00FC
01F8
03F8
07F0
0FE0
1FC0
3F80
7FFC
7FFC
7FFC
7FFC
7FFC
ENDCHAR
STARTCHAR 179
ENCODING 179
SWIDTH 3672 0
DWIDTH 51 0
BBX 15 20 2 26
BITMAP
07C0
1FF0
3FF8
7FFC
7FFC
FC7C
FC7C
007C
03FC
03F8
03F8
03FC
007C
FC7E
FC7E
FCFE
7FFC
7FFC
3FF8
1FF0
ENDCHAR
STARTCHAR 180
ENCODING 180
SWIDTH 3672 0
DWIDTH 51 0
BBX 13 14 1 38
BITMAP
0080
01E0
03F0
07F8
07F8
0FF0
1FE0
3FC0
3FC0
7F80
FF00
7E00
3C00
0800
ENDCHAR
STARTCHAR 181
ENCODING 181
SWIDTH 3672 0
DWIDTH 51 0
BBX 28 42 4 -9
BITMAP
FE000000
FE00FE00
FE00FE00
FE00FE00
FE00FE00
FE00FE00
FE00FE00
FE00FE00
FE00FE00
FE00FE00
FE00FE00
FE00FE00
FE00FE00
FE00FE00
FE00FE00
FE00FE00
FE00FE00
FE00FE00
FE00FE00
FE00FE00
FE00FE00
FE00FE00
FE00FE00
FE00FE00
FE00FE00
FF01FF00
FF83FFF0
FFFFFFF0
FFFFFFF0
FFFFFFF0
FFFFBFF0
FFFF1FF0
FEFE07F0
FE000000
FE000000
FE000000
FE000000
FE000000
FE000000
FE000000
FE000000
FE000000
ENDCHAR
STARTCHAR 182
ENCODING 182
SWIDTH 3672 0
DWIDTH 51 0
BBX 35 52 2 -7
BITMAP
01FFFFFFE0
07FFFFFFE0
0FFFFFFFE0
1FFFFFFFE0
3FFFFFFFE0
3FFFFFFFE0
7FFFF87F00
7FFFF87F00
FFFFF87F00
FFFFF87F00
FFFFF87F00
FFFFF87F00
FFFFF87F00
FFFFF87F00
FFFFF87F00
FFFFF87F00
FFFFF87F00
FFFFF87F00
FFFFF87F00
FFFFF87F00
7FFFF87F00
7FFFF87F00
7FFFF87F00
3FFFF87F00
1FFFF87F00
0FFFF87F00
07FFF87F00
03FFF87F00
007FF87F00
0003F87F00
0003F87F00
0003F87F00
0003F87F00
0003F87F00
0003F87F00
0003F87F00
0003F87F00
0003F87F00
0003F87F00
0003F87F00
0003F87F00
0003F87F00
0003F87F00
0003F87F00
0003F87F00
0003F87F00
0003F87F00
0003F87F00
0003F87F00
0003F87F00
0003F87F00
0003F87F00
ENDCHAR
STARTCHAR 183
ENCODING 183
SWIDTH 3672 0
DWIDTH 51 0
BBX 8 7 2 13
BITMAP
FF
FF
FF
FF
FF
FF
FF
ENDCHAR
STARTCHAR 184
ENCODING 184
SWIDTH 3672 0
DWIDTH 51 0
BBX 13 16 1 -13
BITMAP
1F00
1F00
1F00
1F00
1F00
1FC0
1FE0
1FF0
1FF8
01F8
01F8
77F8
7FF8
7FF0
7FE0
FFC0
ENDCHAR
STARTCHAR 185
ENCODING 185
SWIDTH 3672 0
DWIDTH 51 0
BBX 10 19 2 26
BITMAP
1FC0
7FC0
FFC0
FFC0
FFC0
FFC0
FFC0
CFC0
0FC0
0FC0
0FC0
0FC0
0FC0
0FC0
0FC0
0FC0
0FC0
0FC0
0FC0
ENDCHAR
STARTCHAR 186
ENCODING 186
SWIDTH 3672 0
DWIDTH 51 0
BBX 16 20 2 26
BITMAP
03C0
1FF8
3FFC
7FFE
7FFE
7FFF
FE3F
FC3F
FC3F
FC3F
FC3F
FC3F
FC3F
FC3F
7E7F
7FFF
7FFE
3FFE
1FFC
0FF0
ENDCHAR
STARTCHAR 187
ENCODING 187
SWIDTH 3672 0
DWIDTH 51 0
BBX 28 22 1 5
BITMAP
FF07F800
7F83FC00
3FC1FC00
3FC1FE00
1FE0FF00
0FF07F00
0FF07F80
07F83FC0
03F81FC0
03FC1FE0
01FE0FF0
01FC0FE0
03FC1FE0
07F83FC0
07F83F80
0FF07F80
1FE0FF00
1FE0FE00
3FC1FE00
7F83FC00
7F83F800
FF07F800
ENDCHAR
STARTCHAR 188
ENCODING 188
SWIDTH 3672 0
DWIDTH 51 0
BBX 36 45 2 0
BITMAP
1FC0007E00
7FC000FE00
FFC000FC00
FFC001FC00
FFC001F800
FFC003F800
FFC003F000
CFC007F000
0FC007E000
0FC007E000
0FC00FC000
0FC00FC000
0FC01F8000
0FC01F8000
0FC03F0000
0FC03F0000
0FC07E0000
0FC07E0000
0FC0FC0000
0000FC0000
0001F80000
0001F80000
0003F00000
0003F00000
0007F00000
0007E00000
000FE03E00
000FC07E00
001FC07E00
001F807C00
003F80FC00
003F00FC00
007F00F800
007E01F800
007E01FBE0
00FC01F3E0
00FC03F3E0
01F803F3E0
01F803FFF0
03F003FFF0
03F003FFF0
07E003FFF0
07E003FFF0
0FC00003E0
0FC00003E0
ENDCHAR
STARTCHAR 189
ENCODING 189
SWIDTH 3672 0
DWIDTH 51 0
BBX 36 45 2 0
BITMAP
1FC0007E00
7FC000FC00
FFC000FC00
FFC001F800
FFC001F800
FFC003F000
FFC003F000
CFC007E000
0FC007E000
0FC00FC000
0FC00FC000
0FC01F8000
0FC01F8000
0FC03F8000
0FC03F0000
0FC07F0000
0FC07E0000
0FC0FE0000
0FC0FC0000
0001FC0000
0001F80000
0001F80000
0003F00000
0003F00000
0007E00000
0007E01E00
000FC0FFC0
000FC1FFE0
001F81FFE0
001F83FFF0
003F03F3F0
003F03E3F0
007E0003F0
007E0007E0
00FC0007E0
00FC000FC0
01FC001FC0
01F8003F80
03F8007F00
03F001FE00
07F001FFF0
07E001FFF0
0FE001FFF0
0FC001FFF0
1FC001FFF0
ENDCHAR
STARTCHAR 190
ENCODING 190
SWIDTH 3672 0
DWIDTH 51 0
BBX 38 46 2 0
BITMAP
03C0000000
1FF8001F80
3FFC003F00
7FFC003F00
7FFE007E00
7C7E007E00
7C7E00FE00
007C00FC00
03FC01FC00
03F801F800
03F803F800
03FC03F000
007E07F000
FC7E07E000
7C7E0FE000
7E7E0FC000
7FFE0FC000
7FFC1F8000
3FF81F8000
0FF03F0000
00003F0000
00007E0000
00007E0000
0000FC0000
0000FC0000
0001F80000
0001F80000
0003F01F80
0003F01F00
0007E03F00
0007E03F00
000FE03E00
000FC07E00
001FC07E00
001F807C00
003F80FCF8
003F00FCF8
007F00F8F8
007E01F8F8
00FE01FFFC
00FC01FFFC
00FC01FFFC
01F801FFFC
01F801FFFC
03F00000F8
03F00000F8
ENDCHAR
STARTCHAR 191
ENCODING 191
SWIDTH 3672 0
DWIDTH 51 0
BBX 23 46 2 -13
BITMAP
00FE00
00FE00
00FE00
00FE00
00FE00
00FE00
00FE00
00FE00
000000
000000
000000
000000
00FE00
00FE00
00FE00
00FE00
00FE00
00FE00
01FE00
01FC00
01FC00
03FC00
03F800
07F800
0FF000
0FF000
1FE000
3FC000
3FC000
7F8000
7F8000
7F0000
FF0000
FF01FE
FF01FE
FF01FE
FF01FC
FF01FC
7F83FC
7FCFFC
7FFFF8
3FFFF8
3FFFF0
1FFFE0
07FFC0
01FF00
ENDCHAR
STARTCHAR 192
ENCODING 192
SWIDTH 3672 0
DWIDTH 51 0
BBX 33 60 1 0
BITMAP
0018000000
003C000000
007E000000
00FF000000
01FF800000
00FFC00000
007FE00000
003FF00000
001FE00000
0007C00000
0003800000
0001000000
0000000000
0000000000
0000000000
0007E00000
0007F00000
0007F00000
0007F00000
000FF80000
000FF80000
000FF80000
001FFC0000
001FFC0000
001FFC0000
003FFC0000
003FFE0000
003F7E0000
007F7E0000
007F7F0000
007E7F0000
007E3F0000
00FE3F8000
00FE3F8000
00FC1F8000
01FC1FC000
01FC1FC000
01F81FC000
03F80FC000
03F80FE000
03F80FE000
07F00FE000
07F007F000
07F007F000
07F007F000
0FFFFFF800
0FFFFFF800
0FFFFFF800
1FFFFFFC00
1FFFFFFC00
1FFFFFFC00
3FC001FC00
3F8001FE00
3F8000FE00
3F8000FE00
7F8000FF00
7F00007F00
7F00007F00
FF00007F80
FF00007F80
ENDCHAR
STARTCHAR 193
ENCODING 193
SWIDTH 3672 0
DWIDTH 51 0
BBX 33 60 1 0
BITMAP
00000C0000
00001E0000
00003F0000
00007F8000
0000FFC000
0001FF8000
0003FF0000
0007FC0000
0003F80000
0001F00000
0000E00000
0000000000
0000000000
0000000000
0000000000
0007E00000
0007F00000
0007F00000
0007F00000
000FF80000
000FF80000
000FF80000
001FFC0000
001FFC0000
001FFC0000
003FFC0000
003FFE0000
003F7E0000
007F7E0000
007F7F0000
007E7F0000
007E3F0000
00FE3F8000
00FE3F8000
00FC1F8000
01FC1FC000
01FC1FC000
01F81FC000
03F80FC000
03F80FE000
03F80FE000
07F00FE000
07F007F000
07F007F000
07F007F000
0FFFFFF800
0FFFFFF800
0FFFFFF800
1FFFFFFC00
1FFFFFFC00
1FFFFFFC00
3FC001FC00
3F8001FE00
3F8000FE00
3F8000FE00
7F8000FF00
7F00007F00
7F00007F00
FF00007F80
FF00007F80
ENDCHAR
STARTCHAR 194
ENCODING 194
SWIDTH 3672 0
DWIDTH 51 0
BBX 33 60 1 0
BITMAP
0001800000
0003E00000
0007F00000
000FF80000
003FFC0000
007FFF0000
00FFFF8000
01FF7FC000
01FC3F8000
00780F0000
0030060000
0000000000
0000000000
0000000000
0000000000
0007E00000
0007F00000
0007F00000
0007F00000
000FF80000
000FF80000
000FF80000
001FFC0000
001FFC0000
001FFC0000
003FFC0000
003FFE0000
003F7E0000
007F7E0000
007F7F0000
007E7F0000
007E3F0000
00FE3F8000
00FE3F8000
00FC1F8000
01FC1FC000
01FC1FC000
01F81FC000
03F80FC000
03F80FE000
03F80FE000
07F00FE000
07F007F000
07F007F000
07F007F000
0FFFFFF800
0FFFFFF800
0FFFFFF800
1FFFFFFC00
1FFFFFFC00
1FFFFFFC00
3FC001FC00
3F8001FE00
3F8000FE00
3F8000FE00
7F8000FF00
7F00007F00
7F00007F00
FF00007F80
FF00007F80
ENDCHAR
STARTCHAR 195
ENCODING 195
SWIDTH 3672 0
DWIDTH 51 0
BBX 33 58 1 0
BITMAP
007E07E000
00FF87E000
01FFEFE000
01FFFFE000
03FFFFE000
03FFFFE000
03FBFFC000
03F0FF8000
03F03F0000
0000000000
0000000000
0000000000
0000000000
0007E00000
0007F00000
0007F00000
0007F00000
000FF80000
000FF80000
000FF80000
001FFC0000
001FFC0000
001FFC0000
003FFC0000
003FFE0000
003F7E0000
007F7E0000
007F7F0000
007E7F0000
007E3F0000
00FE3F8000
00FE3F8000
00FC1F8000
01FC1FC000
01FC1FC000
01F81FC000
03F80FC000
03F80FE000
03F80FE000
07F00FE000
07F007F000
07F007F000
07F007F000
0FFFFFF800
0FFFFFF800
0FFFFFF800
1FFFFFFC00
1FFFFFFC00
1FFFFFFC00
3FC001FC00
3F8001FE00
3F8000FE00
3F8000FE00
7F8000FF00
7F00007F00
7F00007F00
FF00007F80
FF00007F80
ENDCHAR
STARTCHAR 196
ENCODING 196
SWIDTH 3672 0
DWIDTH 51 0
BBX 33 56 1 0
BITMAP
01FC1FC000
01FC1FC000
01FC1FC000
01FC1FC000
01FC1FC000
01FC1FC000
01FC1FC000
0000000000
0000000000
0000000000
0000000000
0007E00000
0007F00000
0007F00000
0007F00000
000FF80000
000FF80000
000FF80000
001FFC0000
001FFC0000
001FFC0000
003FFC0000
003FFE0000
003F7E0000
007F7E0000
007F7F0000
007E7F0000
007E3F0000
00FE3F8000
00FE3F8000
00FC1F8000
01FC1FC000
01FC1FC000
01F81FC000
03F80FC000
03F80FE000
03F80FE000
07F00FE000
07F007F000
07F007F000
07F007F000
0FFFFFF800
0FFFFFF800
0FFFFFF800
1FFFFFFC00
1FFFFFFC00
1FFFFFFC00
3FC001FC00
3F8001FE00
3F8000FE00
3F8000FE00
7F8000FF00
7F00007F00
7F00007F00
FF00007F80
FF00007F80
ENDCHAR
STARTCHAR 197
ENCODING 197
SWIDTH 3672 0
DWIDTH 51 0
BBX 33 60 1 0
BITMAP
0001C00000
000FF80000
001FFC0000
003FFE0000
007FFE0000
007E3F0000
007C1F0000
007C1F0000
007C1F0000
007C1F0000
007E3F0000
007FFF0000
003FFE0000
003FFE0000
001FFC0000
0007F00000
0007F00000
0007F00000
0007F00000
000FF80000
000FF80000
000FF80000
001FFC0000
001FFC0000
001FFC0000
003FFC0000
003FFE0000
003F7E0000
007F7E0000
007F7F0000
007E7F0000
007E3F0000
00FE3F8000
00FE3F8000
00FC1F8000
01FC1FC000
01FC1FC000
01F81FC000
03F80FC000
03F80FE000
03F80FE000
07F00FE000
07F007F000
07F007F000
07F007F000
0FFFFFF800
0FFFFFF800
0FFFFFF800
1FFFFFFC00
1FFFFFFC00
1FFFFFFC00
3FC001FC00
3F8001FE00
3F8000FE00
3F8000FE00
7F8000FF00
7F00007F00
7F00007F00
FF00007F80
FF00007F80
ENDCHAR
STARTCHAR 198
ENCODING 198
SWIDTH 3672 0
DWIDTH 51 0
BBX 47 45 0 0
BITMAP
00007FFFFFFE
00007FFFFFFE
00007FFFFFFE
0000FFFFFFFE
0000FFFFFFFE
0001FFFFFFFE
0001FFF80000
0001FBF80000
0003FBF80000
0003FBF80000
0007F3F80000
0007F3F80000
0007E3F80000
000FE3F80000
000FE3F80000
001FC3F80000
001FC3F80000
001FC3F80000
003F83F80000
003F83FFFFF8
007F03FFFFF8
007F03FFFFF8
007F03FFFFF8
00FE03FFFFF8
00FE03FFFFF8
01FE03FFFFF8
01FC03F80000
01FC03F80000
03F803F80000
03F803F80000
07FFFFF80000
07FFFFF80000
07FFFFF80000
0FFFFFF80000
0FFFFFF80000
1FFFFFF80000
1FFFFFF80000
1FC003F80000
3FC003FFFFFE
3F8003FFFFFE
7F8003FFFFFE
7F0003FFFFFE
7F0003FFFFFE
FF0003FFFFFE
FE0003FFFFFE
ENDCHAR
STARTCHAR 199
ENCODING 199
SWIDTH 3672 0
DWIDTH 51 0
BBX 26 59 4 -13
BITMAP
007F8000
03FFF000
07FFF800
0FFFFC00
1FFFFE00
3FFFFF00
7FFFFF00
7FE1FF80
7F807F80
FF003FC0
FF003FC0
FE001FC0
FE001FC0
FE001FC0
FE001FC0
FE000000
FE000000
FE000000
FE000000
FE000000
FE000000
FE000000
FE000000
FE000000
FE000000
FE000000
FE000000
FE000000
FE000000
FE000000
FE000000
FE000000
FE001FC0
FE001FC0
FE001FC0
FE003FC0
FF003FC0
FF807F80
7FC0FF80
7FFFFF80
3FFFFF00
3FFFFF00
1FFFFE00
0FFFFC00
07FFF800
01FFE000
003E0000
003E0000
003F8000
003FE000
003FF000
003FF000
0003F000
0003F000
007FF000
00FFF000
00FFF000
00FFE000
01FF8000
ENDCHAR
STARTCHAR 200
ENCODING 200
SWIDTH 3672 0
DWIDTH 51 0
BBX 25 60 4 0
BITMAP
01800000
03C00000
07E00000
0FF00000
1FF80000
0FFC0000
03FE0000
01FF0000
00FE0000
007C0000
00380000
00000000
00000000
00000000
00000000
FFFFFF80
FFFFFF80
FFFFFF80
FFFFFF80
FFFFFF80
FFFFFF80
FE000000
FE000000
FE000000
FE000000
FE000000
FE000000
FE000000
FE000000
FE000000
FE000000
FE000000
FE000000
FE000000
FFFFFC00
FFFFFC00
FFFFFC00
FFFFFC00
FFFFFC00
FFFFFC00
FFFFFC00
FE000000
FE000000
FE000000
FE000000
FE000000
FE000000
FE000000
FE000000
FE000000
FE000000
FE000000
FE000000
FFFFFF80
FFFFFF80
FFFFFF80
FFFFFF80
FFFFFF80
FFFFFF80
FFFFFF80
ENDCHAR
STARTCHAR 201
ENCODING 201
SWIDTH 3672 0
DWIDTH 51 0
BBX 25 61 4 0
BITMAP
00004000
0000E000
0001F000
0003F800
0007FC00
000FFE00
001FF800
003FF000
007FE000
003FC000
001F0000
000E0000
00040000
00000000
00000000
00000000
FFFFFF80
FFFFFF80
FFFFFF80
FFFFFF80
FFFFFF80
FFFFFF80
FE000000
FE000000
FE000000
FE000000
FE000000
FE000000
FE000000
FE000000
FE000000
FE000000
FE000000
FE000000
FE000000
FFFFFC00
FFFFFC00
FFFFFC00
FFFFFC00
FFFFFC00
FFFFFC00
FFFFFC00
FE000000
FE000000
FE000000
FE000000
FE000000
FE000000
FE000000
FE000000
FE000000
FE000000
FE000000
FE000000
FFFFFF80
FFFFFF80
FFFFFF80
FFFFFF80
FFFFFF80
FFFFFF80
FFFFFF80
ENDCHAR
STARTCHAR 202
ENCODING 202
SWIDTH 3672 0
DWIDTH 51 0
BBX 25 60 4 0
BITMAP
000C0000
001E0000
007F0000
00FFC000
01FFE000
03FFF000
0FFFF800
1FF3FE00
0FE1FC00
07C0F800
03007000
00002000
00000000
00000000
00000000
FFFFFF80
FFFFFF80
FFFFFF80
FFFFFF80
FFFFFF80
FFFFFF80
FE000000
FE000000
FE000000
FE000000
FE000000
FE000000
FE000000
FE000000
FE000000
FE000000
FE000000
FE000000
FE000000
FFFFFC00
FFFFFC00
FFFFFC00
FFFFFC00
FFFFFC00
FFFFFC00
FFFFFC00
FE000000
FE000000
FE000000
FE000000
FE000000
FE000000
FE000000
FE000000
FE000000
FE000000
FE000000
FE000000
FFFFFF80
FFFFFF80
FFFFFF80
FFFFFF80
FFFFFF80
FFFFFF80
FFFFFF80
ENDCHAR
STARTCHAR 203
ENCODING 203
SWIDTH 3672 0
DWIDTH 51 0
BBX 25 56 4 0
BITMAP
1FC0FE00
1FC0FE00
1FC0FE00
1FC0FE00
1FC0FE00
1FC0FE00
1FC0FE00
00000000
00000000
00000000
00000000
FFFFFF80
FFFFFF80
FFFFFF80
FFFFFF80
FFFFFF80
FFFFFF80
FE000000
FE000000
FE000000
FE000000
FE000000
FE000000
FE000000
FE000000
FE000000
FE000000
FE000000
FE000000
FE000000
FFFFFC00
FFFFFC00
FFFFFC00
FFFFFC00
FFFFFC00
FFFFFC00
FFFFFC00
FE000000
FE000000
FE000000
FE000000
FE000000
FE000000
FE000000
FE000000
FE000000
FE000000
FE000000
FE000000
FFFFFF80
FFFFFF80
FFFFFF80
FFFFFF80
FFFFFF80
FFFFFF80
FFFFFF80
ENDCHAR
STARTCHAR 204
ENCODING 204
SWIDTH 3672 0
DWIDTH 51 0
BBX 11 60 0 0
BITMAP
3000
7800
FC00
FE00
FF00
FF80
FFC0
7FE0
3FC0
0F80
0700
0200
0000
0000
0000
0FE0
0FE0
0FE0
0FE0
0FE0
0FE0
0FE0
0FE0
0FE0
0FE0
0FE0
0FE0
0FE0
0FE0
0FE0
0FE0
0FE0
0FE0
0FE0
0FE0
0FE0
0FE0
0FE0
0FE0
0FE0
0FE0
0FE0
0FE0
0FE0
0FE0
0FE0
0FE0
0FE0
0FE0
0FE0
0FE0
0FE0
0FE0
0FE0
0FE0
0FE0
0FE0
0FE0
0FE0
0FE0
ENDCHAR
STARTCHAR 205
ENCODING 205
SWIDTH 3672 0
DWIDTH 51 0
BBX 11 60 4 0
BITMAP
0180
03C0
07E0
0FE0
1FE0
3FE0
7FE0
FF80
7F00
3E00
1C00
0000
0000
0000
0000
FE00
FE00
FE00
FE00
FE00
FE00
FE00
FE00
FE00
FE00
FE00
FE00
FE00
FE00
FE00
FE00
FE00
FE00
FE00
FE00
FE00
FE00
FE00
FE00
FE00
FE00
FE00
FE00
FE00
FE00
FE00
FE00
FE00
FE00
FE00
FE00
FE00
FE00
FE00
FE00
FE00
FE00
FE00
FE00
FE00
ENDCHAR
STARTCHAR 206
ENCODING 206
SWIDTH 3672 0
DWIDTH 51 0
BBX 15 60 0 0
BITMAP
0300
07C0
0FE0
1FF0
7FF8
FFFE
FFFE
FEFE
F87E
F01E
600C
0000
0000
0000
0000
0FE0
0FE0
0FE0
0FE0
0FE0
0FE0
0FE0
0FE0
0FE0
0FE0
0FE0
0FE0
0FE0
0FE0
0FE0
0FE0
0FE0
0FE0
0FE0
0FE0
0FE0
0FE0
0FE0
0FE0
0FE0
0FE0
0FE0
0FE0
0FE0
0FE0
0FE0
0FE0
0FE0
0FE0
0FE0
0FE0
0FE0
0FE0
0FE0
0FE0
0FE0
0FE0
0FE0
0FE0
0FE0
ENDCHAR
STARTCHAR 207
ENCODING 207
SWIDTH 3672 0
DWIDTH 51 0
BBX 15 56 0 0
BITMAP
F83E
F83E
F83E
F83E
F83E
F83E
F83E
0000
0000
0000
0000
0FE0
0FE0
0FE0
0FE0
0FE0
0FE0
0FE0
0FE0
0FE0
0FE0
0FE0
0FE0
0FE0
0FE0
0FE0
0FE0
0FE0
0FE0
0FE0
0FE0
0FE0
0FE0
0FE0
0FE0
0FE0
0FE0
0FE0
0FE0
0FE0
0FE0
0FE0
0FE0
0FE0
0FE0
0FE0
0FE0
0FE0
0FE0
0FE0
0FE0
0FE0
0FE0
0FE0
0FE0
0FE0
ENDCHAR
STARTCHAR 208
ENCODING 208
SWIDTH 3672 0
DWIDTH 51 0
BBX 31 45 1 0
BITMAP
0FFFFF00
0FFFFFC0
0FFFFFE0
0FFFFFF0
0FFFFFF8
0FFFFFFC
0FE01FFC
0FE003FC
0FE001FE
0FE001FE
0FE000FE
0FE000FE
0FE000FE
0FE000FE
0FE000FE
0FE000FE
0FE000FE
0FE000FE
0FE000FE
FFFFC0FE
FFFFC0FE
FFFFC0FE
FFFFC0FE
FFFFC0FE
FFFFC0FE
0FE000FE
0FE000FE
0FE000FE
0FE000FE
0FE000FE
0FE000FE
0FE000FE
0FE000FE
0FE000FE
0FE000FE
0FE001FE
0FE003FE
0FE007FC
0FFFFFFC
0FFFFFF8
0FFFFFF8
0FFFFFF0
0FFFFFE0
0FFFFF80
0FFFFC00
ENDCHAR
STARTCHAR 209
ENCODING 209
SWIDTH 3672 0
DWIDTH 51 0
BBX 29 58 4 0
BITMAP
01F80FC0
03FE0F80
07FF9F80
07FFFF80
07FFFF80
07FFFF80
0FE7FF00
0FC1FF00
0FC07E00
00000000
00000000
00000000
00000000
FE0003F8
FF0003F8
FF0003F8
FF8003F8
FF8003F8
FFC003F8
FFC003F8
FFE003F8
FFE003F8
FFF003F8
FFF003F8
FFF803F8
FFF803F8
FFF803F8
FFFC03F8
FEFC03F8
FEFE03F8
FE7E03F8
FE7F03F8
FE3F03F8
FE3F83F8
FE1F83F8
FE1FC3F8
FE1FC3F8
FE0FE3F8
FE0FE3F8
FE07E3F8
FE07F3F8
FE03F3F8
FE03FBF8
FE01FBF8
FE01FFF8
FE00FFF8
FE00FFF8
FE007FF8
FE007FF8
FE003FF8
FE003FF8
FE001FF8
FE001FF8
FE000FF8
FE000FF8
FE000FF8
FE0007F8
FE0007F8
ENDCHAR
STARTCHAR 210
ENCODING 210
SWIDTH 3672 0
DWIDTH 51 0
BBX 27 60 4 0
BITMAP
00C00000
01E00000
03F00000
07F80000
0FFC0000
07FE0000
03FF0000
01FF8000
007F0000
003E0000
001C0000
00080000
00000000
00000000
003F8000
01FFF000
07FFFC00
0FFFFE00
1FFFFF00
3FFFFF80
7FFFFFC0
7FE0FFC0
7F803FE0
FF001FE0
FF001FE0
FE000FE0
FE000FE0
FE000FE0
FE000FE0
FE000FE0
FE000FE0
FE000FE0
FE000FE0
FE000FE0
FE000FE0
FE000FE0
FE000FE0
FE000FE0
FE000FE0
FE000FE0
FE000FE0
FE000FE0
FE000FE0
FE000FE0
FE000FE0
FE000FE0
FE000FE0
FE000FE0
FE000FE0
FE000FE0
FF001FE0
FF803FE0
7FC07FC0
7FFFFFC0
3FFFFF80
3FFFFF80
1FFFFF00
0FFFFE00
03FFF800
00FFE000
ENDCHAR
STARTCHAR 211
ENCODING 211
SWIDTH 3672 0
DWIDTH 51 0
BBX 27 60 4 0
BITMAP
00006000
0000F000
0001F800
0003FC00
0007FE00
000FFC00
001FF800
003FE000
001FC000
000F8000
00070000
00000000
00000000
00000000
003F8000
01FFF000
07FFFC00
0FFFFE00
1FFFFF00
3FFFFF80
7FFFFFC0
7FE0FFC0
7F803FE0
FF001FE0
FF001FE0
FE000FE0
FE000FE0
FE000FE0
FE000FE0
FE000FE0
FE000FE0
FE000FE0
FE000FE0
FE000FE0
FE000FE0
FE000FE0
FE000FE0
FE000FE0
FE000FE0
FE000FE0
FE000FE0
FE000FE0
FE000FE0
FE000FE0
FE000FE0
FE000FE0
FE000FE0
FE000FE0
FE000FE0
FE000FE0
FF001FE0
FF803FE0
7FC07FC0
7FFFFFC0
3FFFFF80
3FFFFF80
1FFFFF00
0FFFFE00
03FFF800
00FFE000
ENDCHAR
STARTCHAR 212
ENCODING 212
SWIDTH 3672 0
DWIDTH 51 0
BBX 27 60 4 0
BITMAP
000E0000
001F0000
003F8000
007FC000
01FFF000
03FFF800
07FFFC00
0FFBFE00
07E1FC00
03C07800
01803000
00000000
00000000
00000000
003F8000
01FFF000
07FFFC00
0FFFFE00
1FFFFF00
3FFFFF80
7FFFFFC0
7FE0FFC0
7F803FE0
FF001FE0
FF001FE0
FE000FE0
FE000FE0
FE000FE0
FE000FE0
FE000FE0
FE000FE0
FE000FE0
FE000FE0
FE000FE0
FE000FE0
FE000FE0
FE000FE0
FE000FE0
FE000FE0
FE000FE0
FE000FE0
FE000FE0
FE000FE0
FE000FE0
FE000FE0
FE000FE0
FE000FE0
FE000FE0
FE000FE0
FE000FE0
FF001FE0
FF803FE0
7FC07FC0
7FFFFFC0
3FFFFF80
3FFFFF80
1FFFFF00
0FFFFE00
03FFF800
00FFE000
ENDCHAR
STARTCHAR 213
ENCODING 213
SWIDTH 3672 0
DWIDTH 51 0
BBX 27 58 4 0
BITMAP
03F01F00
07FC3F00
0FFF7F00
0FFFFF00
1FFFFF00
1FFFFF00
1FDFFE00
1F87FE00
1F81F800
00000000
00000000
00000000
003F8000
01FFF000
07FFFC00
0FFFFE00
1FFFFF00
3FFFFF80
7FFFFFC0
7FE0FFC0
7F803FE0
FF001FE0
FF001FE0
FE000FE0
FE000FE0
FE000FE0
FE000FE0
FE000FE0
FE000FE0
FE000FE0
FE000FE0
FE000FE0
FE000FE0
FE000FE0
FE000FE0
FE000FE0
FE000FE0
FE000FE0
FE000FE0
FE000FE0
FE000FE0
FE000FE0
FE000FE0
FE000FE0
FE000FE0
FE000FE0
FE000FE0
FE000FE0
FF001FE0
FF803FE0
7FC07FC0
7FFFFFC0
3FFFFF80
3FFFFF80
1FFFFF00
0FFFFE00
03FFF800
00FFE000
ENDCHAR
STARTCHAR 214
ENCODING 214
SWIDTH 3672 0
DWIDTH 51 0
BBX 27 56 4 0
BITMAP
0FE0FE00
0FE0FE00
0FE0FE00
0FE0FE00
0FE0FE00
0FE0FE00
0FE0FE00
00000000
00000000
00000000
003F8000
01FFF000
07FFFC00
0FFFFE00
1FFFFF00
3FFFFF80
7FFFFFC0
7FE0FFC0
7F803FE0
FF001FE0
FF001FE0
FE000FE0
FE000FE0
FE000FE0
FE000FE0
FE000FE0
FE000FE0
FE000FE0
FE000FE0
FE000FE0
FE000FE0
FE000FE0
FE000FE0
FE000FE0
FE000FE0
FE000FE0
FE000FE0
FE000FE0
FE000FE0
FE000FE0
FE000FE0
FE000FE0
FE000FE0
FE000FE0
FE000FE0
FE000FE0
FF001FE0
FF803FE0
7FC07FC0
7FFFFFC0
3FFFFF80
3FFFFF80
1FFFFF00
0FFFFE00
03FFF800
00FFE000
ENDCHAR
STARTCHAR 215
ENCODING 215
SWIDTH 3672 0
DWIDTH 51 0
BBX 22 24 3 9
BITMAP
080000
1C00C0
3C01E0
7E03F8
FF07FC
7F8FF8
3FDFF0
3FFFE0
1FFFC0
0FFF80
07FF80
03FF00
03FE00
07FF00
0FFF80
0FFFC0
1FFFE0
3FDFF0
7FCFF8
FF87FC
7F03F8
3E01F0
1C00E0
080040
ENDCHAR
STARTCHAR 216
ENCODING 216
SWIDTH 3672 0
DWIDTH 51 0
BBX 27 54 4 -4
BITMAP
000007C0
00000F80
00000F80
00000F00
003F9F00
01FFFF00
07FFFE00
0FFFFE00
1FFFFF00
3FFFFF80
7FFFFFC0
7FE0FFC0
7F80FFE0
FF00FFE0
FF00FFE0
FE01FFE0
FE01FFE0
FE01FFE0
FE03EFE0
FE03EFE0
FE03CFE0
FE07CFE0
FE07CFE0
FE078FE0
FE0F8FE0
FE0F8FE0
FE1F0FE0
FE1F0FE0
FE1F0FE0
FE3E0FE0
FE3E0FE0
FE3E0FE0
FE7C0FE0
FE7C0FE0
FE780FE0
FEF80FE0
FEF80FE0
FEF00FE0
FFF00FE0
FFF00FE0
FFE01FE0
FFE03FE0
7FE07FC0
7FFFFFC0
3FFFFF80
3FFFFF80
1FFFFF00
0FFFFE00
0FFFF800
1FFFE000
1F000000
1E000000
3E000000
3E000000
ENDCHAR
STARTCHAR 217
ENCODING 217
SWIDTH 3672 0
DWIDTH 51 0
BBX 27 60 4 0
BITMAP
01800000
03C00000
07E00000
0FF00000
1FF80000
0FFC0000
03FE0000
01FF0000
00FE0000
007C0000
00180000
00000000
00000000
00000000
00000000
FE001FE0
FE001FE0
FE001FE0
FE001FE0
FE001FE0
FE001FE0
FE001FE0
FE001FE0
FE001FE0
FE001FE0
FE001FE0
FE001FE0
FE001FE0
FE001FE0
FE001FE0
FE001FE0
FE001FE0
FE001FE0
FE001FE0
FE001FE0
FE001FE0
FE001FE0
FE001FE0
FE001FE0
FE001FE0
FE001FE0
FE001FE0
FE001FE0
FE001FE0
FE001FE0
FE001FE0
FE001FC0
FE001FC0
FE001FC0
FE001FC0
FF001FC0
FF003FC0
7F807FC0
7FFFFF80
7FFFFF80
3FFFFF00
1FFFFE00
0FFFFC00
07FFF800
01FFE000
ENDCHAR
STARTCHAR 218
ENCODING 218
SWIDTH 3672 0
DWIDTH 51 0
BBX 27 60 4 0
BITMAP
00006000
0000F000
0001F800
0007FC00
000FFE00
001FF800
003FF000
003FE000
001FC000
000F0000
00060000
00000000
00000000
00000000
00000000
FE001FE0
FE001FE0
FE001FE0
FE001FE0
FE001FE0
FE001FE0
FE001FE0
FE001FE0
FE001FE0
FE001FE0
FE001FE0
FE001FE0
FE001FE0
FE001FE0
FE001FE0
FE001FE0
FE001FE0
FE001FE0
FE001FE0
FE001FE0
FE001FE0
FE001FE0
FE001FE0
FE001FE0
FE001FE0
FE001FE0
FE001FE0
FE001FE0
FE001FE0
FE001FE0
FE001FE0
FE001FC0
FE001FC0
FE001FC0
FE001FC0
FF001FC0
FF003FC0
7F807FC0
7FFFFF80
7FFFFF80
3FFFFF00
1FFFFE00
0FFFFC00
07FFF800
01FFE000
ENDCHAR
STARTCHAR 219
ENCODING 219
SWIDTH 3672 0
DWIDTH 51 0
BBX 27 60 4 0
BITMAP
000C0000
001E0000
007F8000
00FFC000
01FFE000
03FFF000
0FFFFC00
1FF3FE00
0FE1FC00
07C0F800
03807000
00000000
00000000
00000000
00000000
FE001FE0
FE001FE0
FE001FE0
FE001FE0
FE001FE0
FE001FE0
FE001FE0
FE001FE0
FE001FE0
FE001FE0
FE001FE0
FE001FE0
FE001FE0
FE001FE0
FE001FE0
FE001FE0
FE001FE0
FE001FE0
FE001FE0
FE001FE0
FE001FE0
FE001FE0
FE001FE0
FE001FE0
FE001FE0
FE001FE0
FE001FE0
FE001FE0
FE001FE0
FE001FE0
FE001FE0
FE001FC0
FE001FC0
FE001FC0
FE001FC0
FF001FC0
FF003FC0
7F807FC0
7FFFFF80
7FFFFF80
3FFFFF00
1FFFFE00
0FFFFC00
07FFF800
01FFE000
ENDCHAR
STARTCHAR 220
ENCODING 220
SWIDTH 3672 0
DWIDTH 51 0
BBX 27 56 4 0
BITMAP
1FC0FE00
1FC0FE00
1FC0FE00
1FC0FE00
1FC0FE00
1FC0FE00
1FC0FE00
00000000
00000000
00000000
00000000
FE001FE0
FE001FE0
FE001FE0
FE001FE0
FE001FE0
FE001FE0
FE001FE0
FE001FE0
FE001FE0
FE001FE0
FE001FE0
FE001FE0
FE001FE0
FE001FE0
FE001FE0
FE001FE0
FE001FE0
FE001FE0
FE001FE0
FE001FE0
FE001FE0
FE001FE0
FE001FE0
FE001FE0
FE001FE0
FE001FE0
FE001FE0
FE001FE0
FE001FE0
FE001FE0
FE001FE0
FE001FC0
FE001FC0
FE001FC0
FE001FC0
FF001FC0
FF003FC0
7F807FC0
7FFFFF80
7FFFFF80
3FFFFF00
1FFFFE00
0FFFFC00
07FFF800
01FFE000
ENDCHAR
STARTCHAR 221
ENCODING 221
SWIDTH 3672 0
DWIDTH 51 0
BBX 27 60 0 0
BITMAP
00006000
0000F000
0001F800
0003FC00
0007FE00
000FFC00
001FF800
003FF000
001FC000
000F8000
00070000
00020000
00000000
00000000
00000000
FE0007E0
FE000FE0
FF000FE0
7F001FE0
7F001FC0
7F801FC0
3F803FC0
3F803F80
1FC03F80
1FC07F00
1FE07F00
0FE07F00
0FE0FE00
07F0FE00
07F1FC00
03F1FC00
03F9FC00
03FBF800
01FFF800
01FFF000
00FFF000
00FFF000
00FFE000
007FE000
007FC000
003FC000
003FC000
003F8000
003F8000
003F8000
003F8000
003F8000
003F8000
003F8000
003F8000
003F8000
003F8000
003F8000
003F8000
003F8000
003F8000
003F8000
003F8000
003F8000
003F8000
ENDCHAR
STARTCHAR 222
ENCODING 222
SWIDTH 3672 0
DWIDTH 51 0
BBX 27 45 4 0
BITMAP
FE000000
FE000000
FE000000
FE000000
FE000000
FE000000
FE000000
FE000000
FFFFF000
FFFFFC00
FFFFFE00
FFFFFF00
FFFFFF80
FFFFFF80
FFFFFFC0
FE003FC0
FE003FC0
FE001FE0
FE001FE0
FE001FE0
FE001FE0
FE001FE0
FE001FE0
FE001FE0
FE001FE0
FE001FE0
FE001FC0
FE003FC0
FE00FFC0
FFFFFF80
FFFFFF80
FFFFFF00
FFFFFE00
FFFFFC00
FFFFF000
FFFE0000
FE000000
FE000000
FE000000
FE000000
FE000000
FE000000
FE000000
FE000000
FE000000
ENDCHAR
STARTCHAR 223
ENCODING 223
SWIDTH 3672 0
DWIDTH 51 0
BBX 23 46 4 0
BITMAP
00FF00
07FFC0
0FFFF0
1FFFF8
3FFFFC
7FFFFC
7FFFFE
FF81FE
FF00FE
FE00FE
FE00FE
FE00FE
FE00FE
FE00FE
FE00FE
FE03FE
FE1FFC
FE1FF8
FE1FF0
FE1FF0
FE1FF8
FE1FFC
FE1FFE
FE01FE
FE00FE
FE00FE
FE00FE
FE00FE
FE00FE
FE00FE
FE00FE
FE00FE
FE00FE
FE00FE
FE00FE
FE00FE
FE00FE
FE00FE
FE00FE
FE03FE
FE1FFE
FE1FFE
FE1FFC
FE1FFC
FE1FF0
FE1FE0
ENDCHAR
STARTCHAR 224
ENCODING 224
SWIDTH 3672 0
DWIDTH 51 0
BBX 23 52 3 0
BITMAP
010000
078000
0FC000
1FC000
1FE000
0FF000
07F800
03F800
03FC00
01FE00
00FF00
007E00
003C00
001000
000000
000000
000000
000000
000000
00FF00
03FFC0
0FFFF0
1FFFF8
3FFFFC
3FFFFC
7FE7FE
3F01FE
0600FE
0000FE
00007E
00007E
00007E
00007E
07FFFE
0FFFFE
3FFFFE
3FFFFE
7FFFFE
7FC07E
FF007E
FE007E
FE007E
FE007E
FE00FE
FE00FE
FF01FE
FFFFFE
7FFFFE
7FFFFE
3FFF7E
1FFE7E
0FFC7E
ENDCHAR
STARTCHAR 225
ENCODING 225
SWIDTH 3672 0
DWIDTH 51 0
BBX 23 52 3 0
BITMAP
000080
0001E0
0003F0
0007F8
0007F8
000FF0
001FE0
003FC0
003FC0
007F80
00FF00
007E00
003C00
000800
000000
000000
000000
000000
000000
00FF00
03FFC0
0FFFF0
1FFFF8
3FFFFC
3FFFFC
7FE7FE
3F01FE
0600FE
0000FE
00007E
00007E
00007E
00007E
07FFFE
0FFFFE
3FFFFE
3FFFFE
7FFFFE
7FC07E
FF007E
FE007E
FE007E
FE007E
FE00FE
FE00FE
FF01FE
FFFFFE
7FFFFE
7FFFFE
3FFF7E
1FFE7E
0FFC7E
ENDCHAR
STARTCHAR 226
ENCODING 226
SWIDTH 3672 0
DWIDTH 51 0
BBX 23 51 3 0
BITMAP
001800
003C00
007E00
00FF00
01FF80
03FFC0
03FFE0
07FFF0
0FE7F8
1FC3F8
1F81F8
0700F0
020040
000000
000000
000000
000000
000000
00FF00
03FFC0
0FFFF0
1FFFF8
3FFFFC
3FFFFC
7FE7FE
3F01FE
0600FE
0000FE
00007E
00007E
00007E
00007E
07FFFE
0FFFFE
3FFFFE
3FFFFE
7FFFFE
7FC07E
FF007E
FE007E
FE007E
FE007E
FE00FE
FE00FE
FF01FE
FFFFFE
7FFFFE
7FFFFE
3FFF7E
1FFE7E
0FFC7E
ENDCHAR
STARTCHAR 227
ENCODING 227
SWIDTH 3672 0
DWIDTH 51 0
BBX 23 48 3 0
BITMAP
01807C
0FE07C
1FF8FC
1FFFFC
3FFFFC
3FFFFC
3FFFF8
3F1FF8
3E07F0
3E01C0
000000
000000
000000
000000
000000
00FF00
03FFC0
0FFFF0
1FFFF8
3FFFFC
3FFFFC
7FE7FE
3F01FE
0600FE
0000FE
00007E
00007E
00007E
00007E
07FFFE
0FFFFE
3FFFFE
3FFFFE
7FFFFE
7FC07E
FF007E
FE007E
FE007E
FE007E
FE00FE
FE00FE
FF01FE
FFFFFE
7FFFFE
7FFFFE
3FFF7E
1FFE7E
0FFC7E
ENDCHAR
STARTCHAR 228
ENCODING 228
SWIDTH 3672 0
DWIDTH 51 0
BBX 23 46 3 0
BITMAP
3FC1FC
3FC1FC
3FC1FC
3FC1FC
3FC1FC
3FC1FC
3FC1FC
000000
000000
000000
000000
000000
000000
00FF00
03FFC0
0FFFF0
1FFFF8
3FFFFC
3FFFFC
7FE7FE
3F01FE
0600FE
0000FE
00007E
00007E
00007E
00007E
07FFFE
0FFFFE
3FFFFE
3FFFFE
7FFFFE
7FC07E
FF007E
FE007E
FE007E
FE007E
FE00FE
FE00FE
FF01FE
FFFFFE
7FFFFE
7FFFFE
3FFF7E
1FFE7E
0FFC7E
ENDCHAR
STARTCHAR 229
ENCODING 229
SWIDTH 3672 0
DWIDTH 51 0
BBX 23 53 3 0
BITMAP
00FF00
01FF80
03FFC0
07FFE0
07E7E0
07C3E0
0FC1F0
0FC1F0
0FC1F0
07C3F0
07E7E0
07FFE0
03FFC0
01FFC0
00FF00
000000
000000
000000
000000
000000
00FF00
03FFC0
0FFFF0
1FFFF8
3FFFFC
3FFFFC
7FE7FE
3F01FE
0600FE
0000FE
00007E
00007E
00007E
00007E
07FFFE
0FFFFE
3FFFFE
3FFFFE
7FFFFE
7FC07E
FF007E
FE007E
FE007E
FE007E
FE00FE
FE00FE
FF01FE
FFFFFE
7FFFFE
7FFFFE
3FFF7E
1FFE7E
0FFC7E
ENDCHAR
STARTCHAR 230
ENCODING 230
SWIDTH 3672 0
DWIDTH 51 0
BBX 40 33 3 0
BITMAP
00FE007F00
07FF81FFE0
0FFFE3FFF0
1FFFE7FFF8
3FFFFFFFFC
3FFFFFFFFC
7FC7FFE3FE
3F01FF80FE
0600FF00FE
0000FF007F
00007F007F
00007F007F
00007E007F
00007E007F
03FFFFFFFF
0FFFFFFFFF
3FFFFFFFFF
3FFFFFFFFF
7FFFFFFFFF
7F807E0000
FF007E0000
FE007E0000
FE00FF0000
FE00FF0000
FE00FF0030
FE01FF807C
FF03FFC0FF
FFCFFFFFFE
7FFFFFFFFE
7FFFE7FFFC
3FFFC3FFF8
1FFF81FFF0
07FE00FFC0
ENDCHAR
STARTCHAR 231
ENCODING 231
SWIDTH 3672 0
DWIDTH 51 0
BBX 23 46 3 -13
BITMAP
00FF00
03FFE0
0FFFF0
1FFFF8
3FFFFC
3FFFFC
7FFFFE
7F81FE
7F00FE
FF00F8
FF0040
FE0000
FE0000
FE0000
FE0000
FE0000
FE0000
FE0000
FE0000
FE0000
FE0000
FE0000
FE0000
FF0060
FF00FC
7F80FE
7FC3FE
7FFFFE
3FFFFC
1FFFFC
0FFFF8
07FFF0
01FFC0
00FC00
00FC00
00FE00
00FF80
00FFC0
00FFE0
0007E0
0007E0
019FE0
01FFE0
01FFC0
03FF80
03FE00
ENDCHAR
STARTCHAR 232
ENCODING 232
SWIDTH 3672 0
DWIDTH 51 0
BBX 24 52 3 0
BITMAP
030000
078000
0FC000
1FC000
1FE000
0FF000
07F800
07F800
03FC00
01FE00
00FF00
007E00
003C00
003000
000000
000000
000000
000000
000000
00FF00
03FFC0
0FFFE0
1FFFF0
3FFFF8
3FFFFC
7FFFFC
7F81FE
7F00FE
FE00FE
FE007E
FE007F
FE007F
FE007F
FFFFFF
FFFFFF
FFFFFF
FFFFFF
FFFFFF
FFFFFF
FE0000
FE0000
FE0000
FE0000
7F0070
7F00FC
7FC1FE
3FFFFE
3FFFFC
1FFFFC
0FFFF8
07FFF0
01FFC0
ENDCHAR
STARTCHAR 233
ENCODING 233
SWIDTH 3672 0
DWIDTH 51 0
BBX 24 52 3 0
BITMAP
000080
0001E0
0003F0
0007F8
0007F8
000FF0
001FE0
003FC0
003F80
007F80
00FF00
007E00
003C00
001800
000000
000000
000000
000000
000000
00FF00
03FFC0
0FFFE0
1FFFF0
3FFFF8
3FFFFC
7FFFFC
7F81FE
7F00FE
FE00FE
FE007E
FE007F
FE007F
FE007F
FFFFFF
FFFFFF
FFFFFF
FFFFFF
FFFFFF
FFFFFF
FE0000
FE0000
FE0000
FE0000
7F0070
7F00FC
7FC1FE
3FFFFE
3FFFFC
1FFFFC
0FFFF8
07FFF0
01FFC0
ENDCHAR
STARTCHAR 234
ENCODING 234
SWIDTH 3672 0
DWIDTH 51 0
BBX 24 51 3 0
BITMAP
001800
003C00
007E00
00FF00
01FF80
03FFC0
07FFC0
0FFFE0
1FE7F0
1FC3F8
1F81F8
0F00E0
020040
000000
000000
000000
000000
000000
00FF00
03FFC0
0FFFE0
1FFFF0
3FFFF8
3FFFFC
7FFFFC
7F81FE
7F00FE
FE00FE
FE007E
FE007F
FE007F
FE007F
FFFFFF
FFFFFF
FFFFFF
FFFFFF
FFFFFF
FFFFFF
FE0000
FE0000
FE0000
FE0000
7F0070
7F00FC
7FC1FE
3FFFFE
3FFFFC
1FFFFC
0FFFF8
07FFF0
01FFC0
ENDCHAR
STARTCHAR 235
ENCODING 235
SWIDTH 3672 0
DWIDTH 51 0
BBX 24 46 3 0
BITMAP
3F83FC
3F83FC
3F83FC
3F83FC
3F83FC
3F83FC
3F83FC
000000
000000
000000
000000
000000
000000
00FF00
03FFC0
0FFFE0
1FFFF0
3FFFF8
3FFFFC
7FFFFC
7F81FE
7F00FE
FE00FE
FE007E
FE007F
FE007F
FE007F
FFFFFF
FFFFFF
FFFFFF
FFFFFF
FFFFFF
FFFFFF
FE0000
FE0000
FE0000
FE0000
7F0070
7F00FC
7FC1FE
3FFFFE
3FFFFC
1FFFFC
0FFFF8
07FFF0
01FFC0
ENDCHAR
STARTCHAR 236
ENCODING 236
SWIDTH 3672 0
DWIDTH 51 0
BBX 11 52 0 0
BITMAP
2000
7000
F800
FC00
FC00
FE00
FF00
7F80
3F80
3FC0
1FE0
0FC0
0780
0300
0000
0000
0000
0000
0000
0000
0FE0
0FE0
0FE0
0FE0
0FE0
0FE0
0FE0
0FE0
0FE0
0FE0
0FE0
0FE0
0FE0
0FE0
0FE0
0FE0
0FE0
0FE0
0FE0
0FE0
0FE0
0FE0
0FE0
0FE0
0FE0
0FE0
0FE0
0FE0
0FE0
0FE0
0FE0
0FE0
ENDCHAR
STARTCHAR 237
ENCODING 237
SWIDTH 3672 0
DWIDTH 51 0
BBX 11 52 3 0
BITMAP
00C0
01E0
03E0
03E0
07E0
0FE0
1FE0
1FE0
3FC0
7F80
FF00
7E00
1C00
0C00
0000
0000
0000
0000
0000
0000
7F00
7F00
7F00
7F00
7F00
7F00
7F00
7F00
7F00
7F00
7F00
7F00
7F00
7F00
7F00
7F00
7F00
7F00
7F00
7F00
7F00
7F00
7F00
7F00
7F00
7F00
7F00
7F00
7F00
7F00
7F00
7F00
ENDCHAR
STARTCHAR 238
ENCODING 238
SWIDTH 3672 0
DWIDTH 51 0
BBX 14 51 0 0
BITMAP
0100
0380
07C0
0FE0
1FF0
3FF8
7FFC
FFFC
FCFC
F87C
F03C
F01C
600C
0000
0000
0000
0000
0000
0000
0FE0
0FE0
0FE0
0FE0
0FE0
0FE0
0FE0
0FE0
0FE0
0FE0
0FE0
0FE0
0FE0
0FE0
0FE0
0FE0
0FE0
0FE0
0FE0
0FE0
0FE0
0FE0
0FE0
0FE0
0FE0
0FE0
0FE0
0FE0
0FE0
0FE0
0FE0
0FE0
ENDCHAR
STARTCHAR 239
ENCODING 239
SWIDTH 3672 0
DWIDTH 51 0
BBX 14 46 0 0
BITMAP
F83C
F83C
F83C
F83C
F83C
F83C
F83C
0000
0000
0000
0000
0000
0000
0000
0FE0
0FE0
0FE0
0FE0
0FE0
0FE0
0FE0
0FE0
0FE0
0FE0
0FE0
0FE0
0FE0
0FE0
0FE0
0FE0
0FE0
0FE0
0FE0
0FE0
0FE0
0FE0
0FE0
0FE0
0FE0
0FE0
0FE0
0FE0
0FE0
0FE0
0FE0
0FE0
ENDCHAR
STARTCHAR 240
ENCODING 240
SWIDTH 3672 0
DWIDTH 51 0
BBX 23 45 3 0
BITMAP
01FC08
00FFF8
00FFF8
0FFFF8
3FFFFC
3FFFF8
3FFFC0
3FEFE0
1C0FE0
0007F0
0007F0
0003F0
03F3F8
0FFDF8
1FFFF8
3FFFFC
3FFFFC
7FFFFC
7FFFFC
7F03FC
FF01FC
FE01FC
FE00FC
FE00FC
FE00FE
FE00FE
FE00FE
FE00FE
FE00FE
FE00FE
FE00FE
FE00FE
FE00FE
FE00FE
FE00FC
FE01FC
FE01FC
7F01FC
7F83FC
7FFFFC
3FFFF8
3FFFF0
1FFFF0
0FFFC0
03FF80
ENDCHAR
STARTCHAR 241
ENCODING 241
SWIDTH 3672 0
DWIDTH 51 0
BBX 23 48 4 0
BITMAP
0300FC
0FE0FC
1FF0FC
3FFFFC
3FFFF8
3FFFF8
3FFFF8
7E3FF0
7E0FF0
7E03C0
000000
000000
000000
000000
000000
000FC0
FE3FF0
FE7FF8
FEFFFC
FFFFFC
FFFFFE
FFFFFE
FF83FE
FF01FE
FE00FE
FE00FE
FE00FE
FE00FE
FE00FE
FE00FE
FE00FE
FE00FE
FE00FE
FE00FE
FE00FE
FE00FE
FE00FE
FE00FE
FE00FE
FE00FE
FE00FE
FE00FE
FE00FE
FE00FE
FE00FE
FE00FE
FE00FE
FE00FE
ENDCHAR
STARTCHAR 242
ENCODING 242
SWIDTH 3672 0
DWIDTH 51 0
BBX 23 52 3 0
BITMAP
030000
078000
0F8000
1FC000
1FE000
0FF000
0FF000
07F800
03FC00
01FE00
00FE00
007E00
007800
003000
000000
000000
000000
000000
000000
00FF00
07FFC0
0FFFF0
1FFFF8
3FFFFC
7FFFFC
7FFFFE
7F83FE
FF01FE
FF00FE
FE00FE
FE00FE
FE00FE
FE00FE
FE00FE
FE00FE
FE00FE
FE00FE
FE00FE
FE00FE
FE00FE
FE00FE
FE00FE
FF00FE
FF00FE
7F81FE
7FC7FE
7FFFFC
3FFFFC
3FFFF8
1FFFF0
07FFE0
03FF80
ENDCHAR
STARTCHAR 243
ENCODING 243
SWIDTH 3672 0
DWIDTH 51 0
BBX 23 52 3 0
BITMAP
000180
0001C0
0003F0
0007F8
000FF8
000FF0
001FE0
003FC0
007F80
007F00
00FF00
007E00
003C00
001800
000000
000000
000000
000000
000000
00FF00
07FFC0
0FFFF0
1FFFF8
3FFFFC
7FFFFC
7FFFFE
7F83FE
FF01FE
FF00FE
FE00FE
FE00FE
FE00FE
FE00FE
FE00FE
FE00FE
FE00FE
FE00FE
FE00FE
FE00FE
FE00FE
FE00FE
FE00FE
FF00FE
FF00FE
7F81FE
7FC7FE
7FFFFC
3FFFFC
3FFFF8
1FFFF0
07FFE0
03FF80
ENDCHAR
STARTCHAR 244
ENCODING 244
SWIDTH 3672 0
DWIDTH 51 0
BBX 23 51 3 0
BITMAP
001800
003C00
007C00
00FE00
01FF00
03FF80
07FFC0
0FFFE0
1FE7F0
3FC3F8
1F81F0
0F00E0
060040
000000
000000
000000
000000
000000
00FF00
07FFC0
0FFFF0
1FFFF8
3FFFFC
7FFFFC
7FFFFE
7F83FE
FF01FE
FF00FE
FE00FE
FE00FE
FE00FE
FE00FE
FE00FE
FE00FE
FE00FE
FE00FE
FE00FE
FE00FE
FE00FE
FE00FE
FE00FE
FF00FE
FF00FE
7F81FE
7FC7FE
7FFFFC
3FFFFC
3FFFF8
1FFFF0
07FFE0
03FF80
ENDCHAR
STARTCHAR 245
ENCODING 245
SWIDTH 3672 0
DWIDTH 51 0
BBX 23 48 3 0
BITMAP
0380FC
0FE0FC
1FF8FC
3FFFFC
3FFFFC
3FFFF8
3FFFF8
3E1FF8
3E0FF0
3E03C0
000000
000000
000000
000000
000000
00FF00
07FFC0
0FFFF0
1FFFF8
3FFFFC
7FFFFC
7FFFFE
7F83FE
FF01FE
FF00FE
FE00FE
FE00FE
FE00FE
FE00FE
FE00FE
FE00FE
FE00FE
FE00FE
FE00FE
FE00FE
FE00FE
FE00FE
FE00FE
FF00FE
FF00FE
7F81FE
7FC7FE
7FFFFC
3FFFFC
3FFFF8
1FFFF0
07FFE0
03FF80
ENDCHAR
STARTCHAR 246
ENCODING 246
SWIDTH 3672 0
DWIDTH 51 0
BBX 23 46 3 0
BITMAP
3F83F8
3F83F8
3F83F8
3F83F8
3F83F8
3F83F8
3F83F8
000000
000000
000000
000000
000000
000000
00FF00
07FFC0
0FFFF0
1FFFF8
3FFFFC
7FFFFC
7FFFFE
7F83FE
FF01FE
FF00FE
FE00FE
FE00FE
FE00FE
FE00FE
FE00FE
FE00FE
FE00FE
FE00FE
FE00FE
FE00FE
FE00FE
FE00FE
FE00FE
FF00FE
FF00FE
7F81FE
7FC7FE
7FFFFC
3FFFFC
3FFFF8
1FFFF0
07FFE0
03FF80
ENDCHAR
STARTCHAR 247
ENCODING 247
SWIDTH 3672 0
DWIDTH 51 0
BBX 20 28 3 7
BITMAP
03F800
03F800
03F800
03F800
03F800
03F800
03F800
03F800
000000
000000
000000
FFFFF0
FFFFF0
FFFFF0
FFFFF0
FFFFF0
FFFFF0
FFFFF0
000000
000000
000000
03F800
03F800
03F800
03F800
03F800
03F800
03F800
ENDCHAR
STARTCHAR 248
ENCODING 248
SWIDTH 3672 0
DWIDTH 51 0
BBX 23 41 3 -4
BITMAP
000078
0000F8
0000F0
0000F0
00FFF0
07FFE0
0FFFF0
1FFFF8
3FFFFC
7FFFFC
7FFFFE
7F87FE
FF07FE
FF0FFE
FE0FFE
FE0FFE
FE1EFE
FE1EFE
FE1EFE
FE3CFE
FE3CFE
FE3CFE
FE78FE
FE78FE
FE78FE
FEF0FE
FEF0FE
FFF0FE
FFE0FE
7FE1FE
7FE7FE
7FFFFC
3FFFFC
3FFFF8
1FFFF0
07FFE0
07FF80
0F0000
0F0000
0F0000
1E0000
ENDCHAR
STARTCHAR 249
ENCODING 249
SWIDTH 3672 0
DWIDTH 51 0
BBX 23 52 4 0
BITMAP
030000
070000
1F8000
3FC000
3FE000
1FE000
0FF000
07F800
03FC00
01FC00
01FE00
00FC00
007800
003000
000000
000000
000000
000000
000000
000000
FE00FE
FE00FE
FE00FE
FE00FE
FE00FE
FE00FE
FE00FE
FE00FE
FE00FE
FE00FE
FE00FE
FE00FE
FE00FE
FE00FE
FE00FE
FE00FE
FE00FE
FE00FE
FE00FE
FE00FE
FE00FE
FE00FE
FE00FE
FE00FE
FF01FE
FF83FE
7FFFFE
7FFFFE
3FFFFE
3FFEFE
1FFCFE
07F8FE
ENDCHAR
STARTCHAR 250
ENCODING 250
SWIDTH 3672 0
DWIDTH 51 0
BBX 23 52 4 0
BITMAP
000180
0003C0
0003E0
0007F8
000FF0
001FE0
001FE0
003FC0
007F80
00FF00
00FE00
00FC00
003C00
001800
000000
000000
000000
000000
000000
000000
FE00FE
FE00FE
FE00FE
FE00FE
FE00FE
FE00FE
FE00FE
FE00FE
FE00FE
FE00FE
FE00FE
FE00FE
FE00FE
FE00FE
FE00FE
FE00FE
FE00FE
FE00FE
FE00FE
FE00FE
FE00FE
FE00FE
FE00FE
FE00FE
FF01FE
FF83FE
7FFFFE
7FFFFE
3FFFFE
3FFEFE
1FFCFE
07F8FE
ENDCHAR
STARTCHAR 251
ENCODING 251
SWIDTH 3672 0
DWIDTH 51 0
BBX 23 51 4 0
BITMAP
001000
003800
007C00
00FE00
01FF00
03FF80
07FFC0
0FFFE0
1FEFF0
3FC7F8
1F83F0
0F01E0
0600C0
000000
000000
000000
000000
000000
000000
FE00FE
FE00FE
FE00FE
FE00FE
FE00FE
FE00FE
FE00FE
FE00FE
FE00FE
FE00FE
FE00FE
FE00FE
FE00FE
FE00FE
FE00FE
FE00FE
FE00FE
FE00FE
FE00FE
FE00FE
FE00FE
FE00FE
FE00FE
FE00FE
FF01FE
FF83FE
7FFFFE
7FFFFE
3FFFFE
3FFEFE
1FFCFE
07F8FE
ENDCHAR
STARTCHAR 252
ENCODING 252
SWIDTH 3672 0
DWIDTH 51 0
BBX 23 46 4 0
BITMAP
3F83F8
3F83F8
3F83F8
3F83F8
3F83F8
3F83F8
3F83F8
000000
000000
000000
000000
000000
000000
000000
FE00FE
FE00FE
FE00FE
FE00FE
FE00FE
FE00FE
FE00FE
FE00FE
FE00FE
FE00FE
FE00FE
FE00FE
FE00FE
FE00FE
FE00FE
FE00FE
FE00FE
FE00FE
FE00FE
FE00FE
FE00FE
FE00FE
FE00FE
FE00FE
FF01FE
FF83FE
7FFFFE
7FFFFE
3FFFFE
3FFEFE
1FFCFE
07F8FE
ENDCHAR
STARTCHAR 253
ENCODING 253
SWIDTH 3672 0
DWIDTH 51 0
BBX 26 65 1 -13
BITMAP
00006000
0000F000
0000F800
0001FC00
0003FC00
0007F800
0007F800
000FF000
001FE000
003FC000
003F8000
003F0000
000F0000
00060000
00000000
00000000
00000000
00000000
00000000
00000000
FE001FC0
7F001FC0
7F003F80
7F003F80
3F803F80
3F803F00
3F807F00
1FC07F00
1FC07E00
1FC0FE00
0FC0FE00
0FE0FE00
0FE0FC00
07E1FC00
07F1FC00
07F1F800
03F1F800
03FBF800
03FBF800
01FBF000
01FFF000
01FFF000
00FFE000
00FFE000
00FFE000
007FE000
007FC000
007FC000
003FC000
003F8000
003F8000
003F8000
003F0000
003F0000
003F0000
007F0000
007E0000
00FE0000
03FE0000
1FFC0000
1FFC0000
1FFC0000
1FF80000
1FF00000
1FE00000
ENDCHAR
STARTCHAR 254
ENCODING 254
SWIDTH 3672 0
DWIDTH 51 0
BBX 0 0 0 0
BITMAP
ENDCHAR
STARTCHAR 255
ENCODING 255
SWIDTH 3672 0
DWIDTH 51 0
BBX 26 59 1 -13
BITMAP
0FE0FE00
0FE0FE00
0FE0FE00
0FE0FE00
0FE0FE00
0FE0FE00
0FE0FE00
00000000
00000000
00000000
00000000
00000000
00000000
00000000
FE001FC0
7F001FC0
7F003F80
7F003F80
3F803F80
3F803F00
3F807F00
1FC07F00
1FC07E00
1FC0FE00
0FC0FE00
0FE0FE00
0FE0FC00
07E1FC00
07F1FC00
07F1F800
03F1F800
03FBF800
03FBF800
01FBF000
01FFF000
01FFF000
00FFE000
00FFE000
00FFE000
007FE000
007FC000
007FC000
003FC000
003F8000
003F8000
003F8000
003F0000
003F0000
003F0000
007F0000
007E0000
00FE0000
03FE0000
1FFC0000
1FFC0000
1FFC0000
1FF80000
1FF00000
1FE00000
ENDCHAR
ENDFONT
